<?xml version="1.0" encoding="utf-8"?>
<svg xmlns="http://www.w3.org/2000/svg" xmlns:xlink="http://www.w3.org/1999/xlink" width="600" height="400" viewBox="0 0 2400 1600">
<defs>
  <clipPath id="clip1000">
    <rect x="0" y="0" width="2000" height="2000"/>
  </clipPath>
</defs>
<defs>
  <clipPath id="clip1001">
    <rect x="0" y="0" width="2400" height="1600"/>
  </clipPath>
</defs>
<polygon clip-path="url(#clip1001)" points="
0,1600 2400,1600 2400,0 0,0 
  " fill="#ffffff" fill-opacity="1"/>
<defs>
  <clipPath id="clip1002">
    <rect x="480" y="0" width="1681" height="1600"/>
  </clipPath>
</defs>
<polygon clip-path="url(#clip1001)" points="
189.504,1503.47 2321.26,1503.47 2321.26,47.2441 189.504,47.2441 
  " fill="#ffffff" fill-opacity="1"/>
<defs>
  <clipPath id="clip1003">
    <rect x="189" y="47" width="2133" height="1457"/>
  </clipPath>
</defs>
<polyline clip-path="url(#clip1003)" style="stroke:#000000; stroke-width:2; stroke-opacity:0.1; fill:none" points="
  249.262,1503.47 249.262,47.2441 
  "/>
<polyline clip-path="url(#clip1003)" style="stroke:#000000; stroke-width:2; stroke-opacity:0.1; fill:none" points="
  728.367,1503.47 728.367,47.2441 
  "/>
<polyline clip-path="url(#clip1003)" style="stroke:#000000; stroke-width:2; stroke-opacity:0.1; fill:none" points="
  1207.47,1503.47 1207.47,47.2441 
  "/>
<polyline clip-path="url(#clip1003)" style="stroke:#000000; stroke-width:2; stroke-opacity:0.1; fill:none" points="
  1686.58,1503.47 1686.58,47.2441 
  "/>
<polyline clip-path="url(#clip1003)" style="stroke:#000000; stroke-width:2; stroke-opacity:0.1; fill:none" points="
  2165.68,1503.47 2165.68,47.2441 
  "/>
<polyline clip-path="url(#clip1003)" style="stroke:#000000; stroke-width:2; stroke-opacity:0.1; fill:none" points="
  189.504,1400.64 2321.26,1400.64 
  "/>
<polyline clip-path="url(#clip1003)" style="stroke:#000000; stroke-width:2; stroke-opacity:0.1; fill:none" points="
  189.504,1152.37 2321.26,1152.37 
  "/>
<polyline clip-path="url(#clip1003)" style="stroke:#000000; stroke-width:2; stroke-opacity:0.1; fill:none" points="
  189.504,904.096 2321.26,904.096 
  "/>
<polyline clip-path="url(#clip1003)" style="stroke:#000000; stroke-width:2; stroke-opacity:0.1; fill:none" points="
  189.504,655.825 2321.26,655.825 
  "/>
<polyline clip-path="url(#clip1003)" style="stroke:#000000; stroke-width:2; stroke-opacity:0.1; fill:none" points="
  189.504,407.555 2321.26,407.555 
  "/>
<polyline clip-path="url(#clip1003)" style="stroke:#000000; stroke-width:2; stroke-opacity:0.1; fill:none" points="
  189.504,159.284 2321.26,159.284 
  "/>
<polyline clip-path="url(#clip1001)" style="stroke:#000000; stroke-width:4; stroke-opacity:1; fill:none" points="
  189.504,1503.47 2321.26,1503.47 
  "/>
<polyline clip-path="url(#clip1001)" style="stroke:#000000; stroke-width:4; stroke-opacity:1; fill:none" points="
  189.504,1503.47 189.504,47.2441 
  "/>
<polyline clip-path="url(#clip1001)" style="stroke:#000000; stroke-width:4; stroke-opacity:1; fill:none" points="
  249.262,1503.47 249.262,1481.63 
  "/>
<polyline clip-path="url(#clip1001)" style="stroke:#000000; stroke-width:4; stroke-opacity:1; fill:none" points="
  728.367,1503.47 728.367,1481.63 
  "/>
<polyline clip-path="url(#clip1001)" style="stroke:#000000; stroke-width:4; stroke-opacity:1; fill:none" points="
  1207.47,1503.47 1207.47,1481.63 
  "/>
<polyline clip-path="url(#clip1001)" style="stroke:#000000; stroke-width:4; stroke-opacity:1; fill:none" points="
  1686.58,1503.47 1686.58,1481.63 
  "/>
<polyline clip-path="url(#clip1001)" style="stroke:#000000; stroke-width:4; stroke-opacity:1; fill:none" points="
  2165.68,1503.47 2165.68,1481.63 
  "/>
<polyline clip-path="url(#clip1001)" style="stroke:#000000; stroke-width:4; stroke-opacity:1; fill:none" points="
  189.504,1400.64 221.48,1400.64 
  "/>
<polyline clip-path="url(#clip1001)" style="stroke:#000000; stroke-width:4; stroke-opacity:1; fill:none" points="
  189.504,1152.37 221.48,1152.37 
  "/>
<polyline clip-path="url(#clip1001)" style="stroke:#000000; stroke-width:4; stroke-opacity:1; fill:none" points="
  189.504,904.096 221.48,904.096 
  "/>
<polyline clip-path="url(#clip1001)" style="stroke:#000000; stroke-width:4; stroke-opacity:1; fill:none" points="
  189.504,655.825 221.48,655.825 
  "/>
<polyline clip-path="url(#clip1001)" style="stroke:#000000; stroke-width:4; stroke-opacity:1; fill:none" points="
  189.504,407.555 221.48,407.555 
  "/>
<polyline clip-path="url(#clip1001)" style="stroke:#000000; stroke-width:4; stroke-opacity:1; fill:none" points="
  189.504,159.284 221.48,159.284 
  "/>
<g clip-path="url(#clip1001)">
<text style="fill:#000000; fill-opacity:1; font-family:Arial,Helvetica Neue,Helvetica,sans-serif; font-size:48; text-anchor:middle;" transform="rotate(0, 249.262, 1557.47)" x="249.262" y="1557.47">0</text>
</g>
<g clip-path="url(#clip1001)">
<text style="fill:#000000; fill-opacity:1; font-family:Arial,Helvetica Neue,Helvetica,sans-serif; font-size:48; text-anchor:middle;" transform="rotate(0, 728.367, 1557.47)" x="728.367" y="1557.47">5</text>
</g>
<g clip-path="url(#clip1001)">
<text style="fill:#000000; fill-opacity:1; font-family:Arial,Helvetica Neue,Helvetica,sans-serif; font-size:48; text-anchor:middle;" transform="rotate(0, 1207.47, 1557.47)" x="1207.47" y="1557.47">10</text>
</g>
<g clip-path="url(#clip1001)">
<text style="fill:#000000; fill-opacity:1; font-family:Arial,Helvetica Neue,Helvetica,sans-serif; font-size:48; text-anchor:middle;" transform="rotate(0, 1686.58, 1557.47)" x="1686.58" y="1557.47">15</text>
</g>
<g clip-path="url(#clip1001)">
<text style="fill:#000000; fill-opacity:1; font-family:Arial,Helvetica Neue,Helvetica,sans-serif; font-size:48; text-anchor:middle;" transform="rotate(0, 2165.68, 1557.47)" x="2165.68" y="1557.47">20</text>
</g>
<g clip-path="url(#clip1001)">
<text style="fill:#000000; fill-opacity:1; font-family:Arial,Helvetica Neue,Helvetica,sans-serif; font-size:48; text-anchor:end;" transform="rotate(0, 165.504, 1418.14)" x="165.504" y="1418.14">-0.2</text>
</g>
<g clip-path="url(#clip1001)">
<text style="fill:#000000; fill-opacity:1; font-family:Arial,Helvetica Neue,Helvetica,sans-serif; font-size:48; text-anchor:end;" transform="rotate(0, 165.504, 1169.87)" x="165.504" y="1169.87">-0.1</text>
</g>
<g clip-path="url(#clip1001)">
<text style="fill:#000000; fill-opacity:1; font-family:Arial,Helvetica Neue,Helvetica,sans-serif; font-size:48; text-anchor:end;" transform="rotate(0, 165.504, 921.596)" x="165.504" y="921.596">0.0</text>
</g>
<g clip-path="url(#clip1001)">
<text style="fill:#000000; fill-opacity:1; font-family:Arial,Helvetica Neue,Helvetica,sans-serif; font-size:48; text-anchor:end;" transform="rotate(0, 165.504, 673.325)" x="165.504" y="673.325">0.1</text>
</g>
<g clip-path="url(#clip1001)">
<text style="fill:#000000; fill-opacity:1; font-family:Arial,Helvetica Neue,Helvetica,sans-serif; font-size:48; text-anchor:end;" transform="rotate(0, 165.504, 425.055)" x="165.504" y="425.055">0.2</text>
</g>
<g clip-path="url(#clip1001)">
<text style="fill:#000000; fill-opacity:1; font-family:Arial,Helvetica Neue,Helvetica,sans-serif; font-size:48; text-anchor:end;" transform="rotate(0, 165.504, 176.784)" x="165.504" y="176.784">0.3</text>
</g>
<polygon clip-path="url(#clip1003)" points="
306.754,88.4582 306.754,904.096 383.411,904.096 383.411,88.4582 306.754,88.4582 306.754,88.4582 
  " fill="#009af9" fill-opacity="1"/>
<polyline clip-path="url(#clip1003)" style="stroke:#000000; stroke-width:4; stroke-opacity:1; fill:none" points="
  306.754,88.4582 306.754,904.096 383.411,904.096 383.411,88.4582 306.754,88.4582 
  "/>
<polygon clip-path="url(#clip1003)" points="
402.575,523.841 402.575,904.096 479.232,904.096 479.232,523.841 402.575,523.841 402.575,523.841 
  " fill="#009af9" fill-opacity="1"/>
<polyline clip-path="url(#clip1003)" style="stroke:#000000; stroke-width:4; stroke-opacity:1; fill:none" points="
  402.575,523.841 402.575,904.096 479.232,904.096 479.232,523.841 402.575,523.841 
  "/>
<polygon clip-path="url(#clip1003)" points="
498.396,1045.99 498.396,904.096 575.053,904.096 575.053,1045.99 498.396,1045.99 498.396,1045.99 
  " fill="#009af9" fill-opacity="1"/>
<polyline clip-path="url(#clip1003)" style="stroke:#000000; stroke-width:4; stroke-opacity:1; fill:none" points="
  498.396,1045.99 498.396,904.096 575.053,904.096 575.053,1045.99 498.396,1045.99 
  "/>
<polygon clip-path="url(#clip1003)" points="
594.217,1301.28 594.217,904.096 670.874,904.096 670.874,1301.28 594.217,1301.28 594.217,1301.28 
  " fill="#009af9" fill-opacity="1"/>
<polyline clip-path="url(#clip1003)" style="stroke:#000000; stroke-width:4; stroke-opacity:1; fill:none" points="
  594.217,1301.28 594.217,904.096 670.874,904.096 670.874,1301.28 594.217,1301.28 
  "/>
<polygon clip-path="url(#clip1003)" points="
690.038,1462.26 690.038,904.096 766.695,904.096 766.695,1462.26 690.038,1462.26 690.038,1462.26 
  " fill="#009af9" fill-opacity="1"/>
<polyline clip-path="url(#clip1003)" style="stroke:#000000; stroke-width:4; stroke-opacity:1; fill:none" points="
  690.038,1462.26 690.038,904.096 766.695,904.096 766.695,1462.26 690.038,1462.26 
  "/>
<polygon clip-path="url(#clip1003)" points="
785.859,1258.36 785.859,904.096 862.516,904.096 862.516,1258.36 785.859,1258.36 785.859,1258.36 
  " fill="#009af9" fill-opacity="1"/>
<polyline clip-path="url(#clip1003)" style="stroke:#000000; stroke-width:4; stroke-opacity:1; fill:none" points="
  785.859,1258.36 785.859,904.096 862.516,904.096 862.516,1258.36 785.859,1258.36 
  "/>
<polygon clip-path="url(#clip1003)" points="
881.68,1216.47 881.68,904.096 958.337,904.096 958.337,1216.47 881.68,1216.47 881.68,1216.47 
  " fill="#009af9" fill-opacity="1"/>
<polyline clip-path="url(#clip1003)" style="stroke:#000000; stroke-width:4; stroke-opacity:1; fill:none" points="
  881.68,1216.47 881.68,904.096 958.337,904.096 958.337,1216.47 881.68,1216.47 
  "/>
<polygon clip-path="url(#clip1003)" points="
977.501,1134.72 977.501,904.096 1054.16,904.096 1054.16,1134.72 977.501,1134.72 977.501,1134.72 
  " fill="#009af9" fill-opacity="1"/>
<polyline clip-path="url(#clip1003)" style="stroke:#000000; stroke-width:4; stroke-opacity:1; fill:none" points="
  977.501,1134.72 977.501,904.096 1054.16,904.096 1054.16,1134.72 977.501,1134.72 
  "/>
<polygon clip-path="url(#clip1003)" points="
1073.32,857.953 1073.32,904.096 1149.98,904.096 1149.98,857.953 1073.32,857.953 1073.32,857.953 
  " fill="#009af9" fill-opacity="1"/>
<polyline clip-path="url(#clip1003)" style="stroke:#000000; stroke-width:4; stroke-opacity:1; fill:none" points="
  1073.32,857.953 1073.32,904.096 1149.98,904.096 1149.98,857.953 1073.32,857.953 
  "/>
<polygon clip-path="url(#clip1003)" points="
1169.14,833.418 1169.14,904.096 1245.8,904.096 1245.8,833.418 1169.14,833.418 1169.14,833.418 
  " fill="#009af9" fill-opacity="1"/>
<polyline clip-path="url(#clip1003)" style="stroke:#000000; stroke-width:4; stroke-opacity:1; fill:none" points="
  1169.14,833.418 1169.14,904.096 1245.8,904.096 1245.8,833.418 1169.14,833.418 
  "/>
<polygon clip-path="url(#clip1003)" points="
1264.96,946.326 1264.96,904.096 1341.62,904.096 1341.62,946.326 1264.96,946.326 1264.96,946.326 
  " fill="#009af9" fill-opacity="1"/>
<polyline clip-path="url(#clip1003)" style="stroke:#000000; stroke-width:4; stroke-opacity:1; fill:none" points="
  1264.96,946.326 1264.96,904.096 1341.62,904.096 1341.62,946.326 1264.96,946.326 
  "/>
<polygon clip-path="url(#clip1003)" points="
1360.79,1298.14 1360.79,904.096 1437.44,904.096 1437.44,1298.14 1360.79,1298.14 1360.79,1298.14 
  " fill="#009af9" fill-opacity="1"/>
<polyline clip-path="url(#clip1003)" style="stroke:#000000; stroke-width:4; stroke-opacity:1; fill:none" points="
  1360.79,1298.14 1360.79,904.096 1437.44,904.096 1437.44,1298.14 1360.79,1298.14 
  "/>
<polygon clip-path="url(#clip1003)" points="
1456.61,1274.69 1456.61,904.096 1533.26,904.096 1533.26,1274.69 1456.61,1274.69 1456.61,1274.69 
  " fill="#009af9" fill-opacity="1"/>
<polyline clip-path="url(#clip1003)" style="stroke:#000000; stroke-width:4; stroke-opacity:1; fill:none" points="
  1456.61,1274.69 1456.61,904.096 1533.26,904.096 1533.26,1274.69 1456.61,1274.69 
  "/>
<polygon clip-path="url(#clip1003)" points="
1552.43,1141.78 1552.43,904.096 1629.08,904.096 1629.08,1141.78 1552.43,1141.78 1552.43,1141.78 
  " fill="#009af9" fill-opacity="1"/>
<polyline clip-path="url(#clip1003)" style="stroke:#000000; stroke-width:4; stroke-opacity:1; fill:none" points="
  1552.43,1141.78 1552.43,904.096 1629.08,904.096 1629.08,1141.78 1552.43,1141.78 
  "/>
<polygon clip-path="url(#clip1003)" points="
1648.25,1141.33 1648.25,904.096 1724.9,904.096 1724.9,1141.33 1648.25,1141.33 1648.25,1141.33 
  " fill="#009af9" fill-opacity="1"/>
<polyline clip-path="url(#clip1003)" style="stroke:#000000; stroke-width:4; stroke-opacity:1; fill:none" points="
  1648.25,1141.33 1648.25,904.096 1724.9,904.096 1724.9,1141.33 1648.25,1141.33 
  "/>
<polygon clip-path="url(#clip1003)" points="
1744.07,789.32 1744.07,904.096 1820.73,904.096 1820.73,789.32 1744.07,789.32 1744.07,789.32 
  " fill="#009af9" fill-opacity="1"/>
<polyline clip-path="url(#clip1003)" style="stroke:#000000; stroke-width:4; stroke-opacity:1; fill:none" points="
  1744.07,789.32 1744.07,904.096 1820.73,904.096 1820.73,789.32 1744.07,789.32 
  "/>
<polygon clip-path="url(#clip1003)" points="
1839.89,751.368 1839.89,904.096 1916.55,904.096 1916.55,751.368 1839.89,751.368 1839.89,751.368 
  " fill="#009af9" fill-opacity="1"/>
<polyline clip-path="url(#clip1003)" style="stroke:#000000; stroke-width:4; stroke-opacity:1; fill:none" points="
  1839.89,751.368 1839.89,904.096 1916.55,904.096 1916.55,751.368 1839.89,751.368 
  "/>
<polygon clip-path="url(#clip1003)" points="
1935.71,656.125 1935.71,904.096 2012.37,904.096 2012.37,656.125 1935.71,656.125 1935.71,656.125 
  " fill="#009af9" fill-opacity="1"/>
<polyline clip-path="url(#clip1003)" style="stroke:#000000; stroke-width:4; stroke-opacity:1; fill:none" points="
  1935.71,656.125 1935.71,904.096 2012.37,904.096 2012.37,656.125 1935.71,656.125 
  "/>
<polygon clip-path="url(#clip1003)" points="
2031.53,712.636 2031.53,904.096 2108.19,904.096 2108.19,712.636 2031.53,712.636 2031.53,712.636 
  " fill="#009af9" fill-opacity="1"/>
<polyline clip-path="url(#clip1003)" style="stroke:#000000; stroke-width:4; stroke-opacity:1; fill:none" points="
  2031.53,712.636 2031.53,904.096 2108.19,904.096 2108.19,712.636 2031.53,712.636 
  "/>
<polygon clip-path="url(#clip1003)" points="
2127.35,708.197 2127.35,904.096 2204.01,904.096 2204.01,708.197 2127.35,708.197 2127.35,708.197 
  " fill="#009af9" fill-opacity="1"/>
<polyline clip-path="url(#clip1003)" style="stroke:#000000; stroke-width:4; stroke-opacity:1; fill:none" points="
  2127.35,708.197 2127.35,904.096 2204.01,904.096 2204.01,708.197 2127.35,708.197 
  "/>
<polygon clip-path="url(#clip1001)" points="
1958.43,251.724 2249.26,251.724 2249.26,130.764 1958.43,130.764 
  " fill="#ffffff" fill-opacity="1"/>
<polyline clip-path="url(#clip1001)" style="stroke:#000000; stroke-width:4; stroke-opacity:1; fill:none" points="
  1958.43,251.724 2249.26,251.724 2249.26,130.764 1958.43,130.764 1958.43,251.724 
  "/>
<polygon clip-path="url(#clip1001)" points="
1982.43,215.436 2126.43,215.436 2126.43,167.052 1982.43,167.052 1982.43,215.436 
  " fill="#009af9" fill-opacity="1"/>
<polyline clip-path="url(#clip1001)" style="stroke:#000000; stroke-width:4; stroke-opacity:1; fill:none" points="
  1982.43,215.436 2126.43,215.436 2126.43,167.052 1982.43,167.052 1982.43,215.436 
  "/>
<g clip-path="url(#clip1001)">
<text style="fill:#000000; fill-opacity:1; font-family:Arial,Helvetica Neue,Helvetica,sans-serif; font-size:48; text-anchor:start;" transform="rotate(0, 2150.43, 208.744)" x="2150.43" y="208.744">y1</text>
</g>
</svg>
