<?xml version="1.0" encoding="utf-8"?>
<svg xmlns="http://www.w3.org/2000/svg" xmlns:xlink="http://www.w3.org/1999/xlink" width="600" height="400" viewBox="0 0 2400 1600">
<defs>
  <clipPath id="clip7500">
    <rect x="0" y="0" width="2000" height="2000"/>
  </clipPath>
</defs>
<defs>
  <clipPath id="clip7501">
    <rect x="0" y="0" width="2400" height="1600"/>
  </clipPath>
</defs>
<polygon clip-path="url(#clip7501)" points="
0,1600 2400,1600 2400,0 0,0 
  " fill="#ffffff" fill-opacity="1"/>
<defs>
  <clipPath id="clip7502">
    <rect x="480" y="0" width="1681" height="1600"/>
  </clipPath>
</defs>
<polygon clip-path="url(#clip7501)" points="
295.446,703.475 2321.26,703.475 2321.26,47.2441 295.446,47.2441 
  " fill="#ffffff" fill-opacity="1"/>
<defs>
  <clipPath id="clip7503">
    <rect x="295" y="47" width="2027" height="657"/>
  </clipPath>
</defs>
<polyline clip-path="url(#clip7503)" style="stroke:#000000; stroke-width:2; stroke-opacity:0.1; fill:none" points="
  433.819,703.475 433.819,47.2441 
  "/>
<polyline clip-path="url(#clip7503)" style="stroke:#000000; stroke-width:2; stroke-opacity:0.1; fill:none" points="
  703.945,703.475 703.945,47.2441 
  "/>
<polyline clip-path="url(#clip7503)" style="stroke:#000000; stroke-width:2; stroke-opacity:0.1; fill:none" points="
  974.072,703.475 974.072,47.2441 
  "/>
<polyline clip-path="url(#clip7503)" style="stroke:#000000; stroke-width:2; stroke-opacity:0.1; fill:none" points="
  1244.2,703.475 1244.2,47.2441 
  "/>
<polyline clip-path="url(#clip7503)" style="stroke:#000000; stroke-width:2; stroke-opacity:0.1; fill:none" points="
  1514.32,703.475 1514.32,47.2441 
  "/>
<polyline clip-path="url(#clip7503)" style="stroke:#000000; stroke-width:2; stroke-opacity:0.1; fill:none" points="
  1784.45,703.475 1784.45,47.2441 
  "/>
<polyline clip-path="url(#clip7503)" style="stroke:#000000; stroke-width:2; stroke-opacity:0.1; fill:none" points="
  2054.58,703.475 2054.58,47.2441 
  "/>
<polyline clip-path="url(#clip7503)" style="stroke:#000000; stroke-width:2; stroke-opacity:0.1; fill:none" points="
  295.446,674.12 2321.26,674.12 
  "/>
<polyline clip-path="url(#clip7503)" style="stroke:#000000; stroke-width:2; stroke-opacity:0.1; fill:none" points="
  295.446,512.743 2321.26,512.743 
  "/>
<polyline clip-path="url(#clip7503)" style="stroke:#000000; stroke-width:2; stroke-opacity:0.1; fill:none" points="
  295.446,351.367 2321.26,351.367 
  "/>
<polyline clip-path="url(#clip7503)" style="stroke:#000000; stroke-width:2; stroke-opacity:0.1; fill:none" points="
  295.446,189.99 2321.26,189.99 
  "/>
<polyline clip-path="url(#clip7501)" style="stroke:#000000; stroke-width:4; stroke-opacity:1; fill:none" points="
  295.446,703.475 2321.26,703.475 
  "/>
<polyline clip-path="url(#clip7501)" style="stroke:#000000; stroke-width:4; stroke-opacity:1; fill:none" points="
  295.446,703.475 295.446,47.2441 
  "/>
<polyline clip-path="url(#clip7501)" style="stroke:#000000; stroke-width:4; stroke-opacity:1; fill:none" points="
  433.819,703.475 433.819,693.631 
  "/>
<polyline clip-path="url(#clip7501)" style="stroke:#000000; stroke-width:4; stroke-opacity:1; fill:none" points="
  703.945,703.475 703.945,693.631 
  "/>
<polyline clip-path="url(#clip7501)" style="stroke:#000000; stroke-width:4; stroke-opacity:1; fill:none" points="
  974.072,703.475 974.072,693.631 
  "/>
<polyline clip-path="url(#clip7501)" style="stroke:#000000; stroke-width:4; stroke-opacity:1; fill:none" points="
  1244.2,703.475 1244.2,693.631 
  "/>
<polyline clip-path="url(#clip7501)" style="stroke:#000000; stroke-width:4; stroke-opacity:1; fill:none" points="
  1514.32,703.475 1514.32,693.631 
  "/>
<polyline clip-path="url(#clip7501)" style="stroke:#000000; stroke-width:4; stroke-opacity:1; fill:none" points="
  1784.45,703.475 1784.45,693.631 
  "/>
<polyline clip-path="url(#clip7501)" style="stroke:#000000; stroke-width:4; stroke-opacity:1; fill:none" points="
  2054.58,703.475 2054.58,693.631 
  "/>
<polyline clip-path="url(#clip7501)" style="stroke:#000000; stroke-width:4; stroke-opacity:1; fill:none" points="
  295.446,674.12 325.834,674.12 
  "/>
<polyline clip-path="url(#clip7501)" style="stroke:#000000; stroke-width:4; stroke-opacity:1; fill:none" points="
  295.446,512.743 325.834,512.743 
  "/>
<polyline clip-path="url(#clip7501)" style="stroke:#000000; stroke-width:4; stroke-opacity:1; fill:none" points="
  295.446,351.367 325.834,351.367 
  "/>
<polyline clip-path="url(#clip7501)" style="stroke:#000000; stroke-width:4; stroke-opacity:1; fill:none" points="
  295.446,189.99 325.834,189.99 
  "/>
<g clip-path="url(#clip7501)">
<text style="fill:#000000; fill-opacity:1; font-family:Arial,Helvetica Neue,Helvetica,sans-serif; font-size:48; text-anchor:middle;" transform="rotate(0, 433.819, 757.475)" x="433.819" y="757.475">1950</text>
</g>
<g clip-path="url(#clip7501)">
<text style="fill:#000000; fill-opacity:1; font-family:Arial,Helvetica Neue,Helvetica,sans-serif; font-size:48; text-anchor:middle;" transform="rotate(0, 703.945, 757.475)" x="703.945" y="757.475">1960</text>
</g>
<g clip-path="url(#clip7501)">
<text style="fill:#000000; fill-opacity:1; font-family:Arial,Helvetica Neue,Helvetica,sans-serif; font-size:48; text-anchor:middle;" transform="rotate(0, 974.072, 757.475)" x="974.072" y="757.475">1970</text>
</g>
<g clip-path="url(#clip7501)">
<text style="fill:#000000; fill-opacity:1; font-family:Arial,Helvetica Neue,Helvetica,sans-serif; font-size:48; text-anchor:middle;" transform="rotate(0, 1244.2, 757.475)" x="1244.2" y="757.475">1980</text>
</g>
<g clip-path="url(#clip7501)">
<text style="fill:#000000; fill-opacity:1; font-family:Arial,Helvetica Neue,Helvetica,sans-serif; font-size:48; text-anchor:middle;" transform="rotate(0, 1514.32, 757.475)" x="1514.32" y="757.475">1990</text>
</g>
<g clip-path="url(#clip7501)">
<text style="fill:#000000; fill-opacity:1; font-family:Arial,Helvetica Neue,Helvetica,sans-serif; font-size:48; text-anchor:middle;" transform="rotate(0, 1784.45, 757.475)" x="1784.45" y="757.475">2000</text>
</g>
<g clip-path="url(#clip7501)">
<text style="fill:#000000; fill-opacity:1; font-family:Arial,Helvetica Neue,Helvetica,sans-serif; font-size:48; text-anchor:middle;" transform="rotate(0, 2054.58, 757.475)" x="2054.58" y="757.475">2010</text>
</g>
<g clip-path="url(#clip7501)">
<text style="fill:#000000; fill-opacity:1; font-family:Arial,Helvetica Neue,Helvetica,sans-serif; font-size:48; text-anchor:end;" transform="rotate(0, 271.446, 691.62)" x="271.446" y="691.62">-400</text>
</g>
<g clip-path="url(#clip7501)">
<text style="fill:#000000; fill-opacity:1; font-family:Arial,Helvetica Neue,Helvetica,sans-serif; font-size:48; text-anchor:end;" transform="rotate(0, 271.446, 530.243)" x="271.446" y="530.243">-200</text>
</g>
<g clip-path="url(#clip7501)">
<text style="fill:#000000; fill-opacity:1; font-family:Arial,Helvetica Neue,Helvetica,sans-serif; font-size:48; text-anchor:end;" transform="rotate(0, 271.446, 368.867)" x="271.446" y="368.867">0</text>
</g>
<g clip-path="url(#clip7501)">
<text style="fill:#000000; fill-opacity:1; font-family:Arial,Helvetica Neue,Helvetica,sans-serif; font-size:48; text-anchor:end;" transform="rotate(0, 271.446, 207.49)" x="271.446" y="207.49">200</text>
</g>
<polyline clip-path="url(#clip7503)" style="stroke:#0000ff; stroke-width:4; stroke-opacity:1; fill:none" points="
  352.781,305.122 359.534,325.087 366.287,344.901 373.04,338.681 379.793,333.844 386.547,326.374 393.3,336.109 400.053,353.542 406.806,395.594 413.559,421.161 
  420.312,424.117 427.066,460.077 433.819,417.501 440.572,389.025 447.325,344.977 454.078,333.154 460.831,331.028 467.584,321.645 474.338,305.322 481.091,323.349 
  487.844,324.772 494.597,342.08 501.35,348.762 508.103,304.265 514.857,285.99 521.61,288.815 528.363,318.972 535.116,368.45 541.869,395.384 548.622,410.345 
  555.376,403.965 562.129,380.207 568.882,336.268 575.635,316.834 582.388,302.676 589.141,304.302 595.895,327.647 602.648,323.596 609.401,339.578 616.154,316.73 
  622.907,315.908 629.66,335 636.414,326.793 643.167,365.099 649.92,439.663 656.673,440.582 663.426,404.958 670.179,368.304 676.933,342.489 683.686,302.947 
  690.439,327.362 697.192,338.236 703.945,304.751 710.698,336.703 717.451,353.887 724.205,408.932 730.958,417.846 737.711,398.432 744.464,384.351 751.217,361.549 
  757.97,344.922 764.724,348.152 771.477,355.667 778.23,379.609 784.983,384.652 791.736,385.109 798.489,367.774 805.243,385.939 811.996,362.723 818.749,367.682 
  825.502,367.69 832.255,398.05 839.008,364.203 845.762,362.916 852.515,339.88 859.268,304.625 866.021,263.376 872.774,289.265 879.527,303.995 886.281,312.72 
  893.034,318.195 899.787,351.44 906.54,356.687 913.293,362.825 920.046,324.306 926.799,295.81 933.553,301.072 940.306,315.509 947.059,287.737 953.812,305.119 
  960.565,310.348 967.318,355.673 974.072,390.899 980.825,412.694 987.578,407.705 994.331,476.232 1001.08,403.979 1007.84,411.628 1014.59,411.289 1021.34,430.444 
  1028.1,390.277 1034.85,327.921 1041.6,320.947 1048.36,282.64 1055.11,208.923 1061.86,189.894 1068.62,243.545 1075.37,232.32 1082.12,298.291 1088.88,316.272 
  1095.63,388.562 1102.38,436.466 1109.13,520.194 1115.89,519.979 1122.64,482.847 1129.39,459.165 1136.15,395.58 1142.9,398.953 1149.65,414.286 1156.41,419.119 
  1163.16,405.093 1169.91,353.269 1176.67,308.784 1183.42,347.794 1190.17,369.727 1196.93,218.124 1203.68,205.207 1210.43,171.752 1217.19,194.966 1223.94,220.578 
  1230.69,213.637 1237.44,229.111 1244.2,240.069 1250.95,374.021 1257.7,408.655 1264.46,340.058 1271.21,258.735 1277.96,325.816 1284.72,293.972 1291.47,387.436 
  1298.22,509.131 1304.98,515.997 1311.73,573.108 1318.48,609.304 1325.24,585.201 1331.99,511.761 1338.74,456.112 1345.5,395.273 1352.25,338.634 1359,294.95 
  1365.75,296.299 1372.51,309.272 1379.26,310.994 1386.01,317.429 1392.77,284.719 1399.52,300.349 1406.27,304.493 1413.03,337.169 1419.78,334.713 1426.53,362.186 
  1433.29,377.156 1440.04,363.674 1446.79,362.463 1453.55,310.64 1460.3,328.548 1467.05,293.76 1473.81,306.988 1480.56,267.12 1487.31,246.319 1494.07,238.741 
  1500.82,231.933 1507.57,261.37 1514.32,226.426 1521.08,240.746 1527.83,280.528 1534.58,383.641 1541.34,458.893 1548.09,445.543 1554.84,454.114 1561.6,466.985 
  1568.35,427.107 1575.1,393.737 1581.86,371.054 1588.61,347.385 1595.36,386.916 1602.12,397.522 1608.87,418.253 1615.62,375.923 1622.38,362.084 1629.13,319.342 
  1635.88,339.284 1642.63,317.375 1649.39,361.009 1656.14,406.154 1662.89,412.063 1669.65,431.635 1676.4,457.437 1683.15,393.932 1689.91,399.528 1696.66,394.815 
  1703.41,416.126 1710.17,372.98 1716.92,349.619 1723.67,370.077 1730.43,370.99 1737.18,372.79 1743.93,342.178 1750.69,278.149 1757.44,290.64 1764.19,298.694 
  1770.94,262.644 1777.7,176.613 1784.45,229.417 1791.2,120.693 1797.96,186.095 1804.71,204.05 1811.46,307.34 1818.22,326.239 1824.97,430.813 1831.72,474.145 
  1838.48,451.369 1845.23,466.099 1851.98,487.668 1858.74,553.772 1865.49,572.945 1872.24,549.262 1879,445.734 1885.75,393.764 1892.5,404.769 1899.25,397.246 
  1906.01,368.399 1912.76,341.853 1919.51,289.53 1926.27,295.06 1933.02,260.735 1939.77,252.977 1946.53,167.842 1953.28,182.725 1960.03,217.728 1966.79,166.538 
  1973.54,195.751 1980.29,137.049 1987.05,84.5693 1993.8,65.8167 2000.55,169.398 2007.31,128.218 2014.06,202.797 2020.81,472.618 2027.56,651.773 2034.32,684.902 
  2041.07,666.49 2047.82,576.034 2054.58,550.262 2061.33,464.651 2068.08,415.903 2074.84,375.354 2081.59,460.215 2088.34,414.532 2095.1,433.989 2101.85,345.652 
  2108.6,315.44 2115.36,311.775 2122.11,353.549 2128.86,409.934 2135.62,384.704 2142.37,424.644 2149.12,393.989 2155.87,338.733 2162.63,437.563 2169.38,364.607 
  2176.13,272.214 2182.89,279.829 2189.64,248.399 2196.39,232.472 2203.15,252.39 2209.9,310.053 2216.65,364.632 2223.41,364.447 2230.16,346.055 2236.91,361.137 
  2243.67,393.629 2250.42,364.876 2257.17,332.183 2263.93,307.753 
  "/>
<polygon clip-path="url(#clip7501)" points="
367.446,251.724 727.781,251.724 727.781,130.764 367.446,130.764 
  " fill="#ffffff" fill-opacity="1"/>
<polyline clip-path="url(#clip7501)" style="stroke:#000000; stroke-width:4; stroke-opacity:1; fill:none" points="
  367.446,251.724 727.781,251.724 727.781,130.764 367.446,130.764 367.446,251.724 
  "/>
<polyline clip-path="url(#clip7501)" style="stroke:#0000ff; stroke-width:4; stroke-opacity:1; fill:none" points="
  391.446,191.244 535.446,191.244 
  "/>
<g clip-path="url(#clip7501)">
<text style="fill:#000000; fill-opacity:1; font-family:Arial,Helvetica Neue,Helvetica,sans-serif; font-size:48; text-anchor:start;" transform="rotate(0, 559.446, 208.744)" x="559.446" y="208.744">Cycle</text>
</g>
<polygon clip-path="url(#clip7501)" points="
295.446,1503.47 2321.26,1503.47 2321.26,847.244 295.446,847.244 
  " fill="#ffffff" fill-opacity="1"/>
<defs>
  <clipPath id="clip7504">
    <rect x="295" y="847" width="2027" height="657"/>
  </clipPath>
</defs>
<polyline clip-path="url(#clip7504)" style="stroke:#000000; stroke-width:2; stroke-opacity:0.1; fill:none" points="
  433.819,1503.47 433.819,847.244 
  "/>
<polyline clip-path="url(#clip7504)" style="stroke:#000000; stroke-width:2; stroke-opacity:0.1; fill:none" points="
  703.945,1503.47 703.945,847.244 
  "/>
<polyline clip-path="url(#clip7504)" style="stroke:#000000; stroke-width:2; stroke-opacity:0.1; fill:none" points="
  974.072,1503.47 974.072,847.244 
  "/>
<polyline clip-path="url(#clip7504)" style="stroke:#000000; stroke-width:2; stroke-opacity:0.1; fill:none" points="
  1244.2,1503.47 1244.2,847.244 
  "/>
<polyline clip-path="url(#clip7504)" style="stroke:#000000; stroke-width:2; stroke-opacity:0.1; fill:none" points="
  1514.32,1503.47 1514.32,847.244 
  "/>
<polyline clip-path="url(#clip7504)" style="stroke:#000000; stroke-width:2; stroke-opacity:0.1; fill:none" points="
  1784.45,1503.47 1784.45,847.244 
  "/>
<polyline clip-path="url(#clip7504)" style="stroke:#000000; stroke-width:2; stroke-opacity:0.1; fill:none" points="
  2054.58,1503.47 2054.58,847.244 
  "/>
<polyline clip-path="url(#clip7504)" style="stroke:#000000; stroke-width:2; stroke-opacity:0.1; fill:none" points="
  295.446,1439.63 2321.26,1439.63 
  "/>
<polyline clip-path="url(#clip7504)" style="stroke:#000000; stroke-width:2; stroke-opacity:0.1; fill:none" points="
  295.446,1318.68 2321.26,1318.68 
  "/>
<polyline clip-path="url(#clip7504)" style="stroke:#000000; stroke-width:2; stroke-opacity:0.1; fill:none" points="
  295.446,1197.73 2321.26,1197.73 
  "/>
<polyline clip-path="url(#clip7504)" style="stroke:#000000; stroke-width:2; stroke-opacity:0.1; fill:none" points="
  295.446,1076.78 2321.26,1076.78 
  "/>
<polyline clip-path="url(#clip7504)" style="stroke:#000000; stroke-width:2; stroke-opacity:0.1; fill:none" points="
  295.446,955.823 2321.26,955.823 
  "/>
<polyline clip-path="url(#clip7501)" style="stroke:#000000; stroke-width:4; stroke-opacity:1; fill:none" points="
  295.446,1503.47 2321.26,1503.47 
  "/>
<polyline clip-path="url(#clip7501)" style="stroke:#000000; stroke-width:4; stroke-opacity:1; fill:none" points="
  295.446,1503.47 295.446,847.244 
  "/>
<polyline clip-path="url(#clip7501)" style="stroke:#000000; stroke-width:4; stroke-opacity:1; fill:none" points="
  433.819,1503.47 433.819,1493.63 
  "/>
<polyline clip-path="url(#clip7501)" style="stroke:#000000; stroke-width:4; stroke-opacity:1; fill:none" points="
  703.945,1503.47 703.945,1493.63 
  "/>
<polyline clip-path="url(#clip7501)" style="stroke:#000000; stroke-width:4; stroke-opacity:1; fill:none" points="
  974.072,1503.47 974.072,1493.63 
  "/>
<polyline clip-path="url(#clip7501)" style="stroke:#000000; stroke-width:4; stroke-opacity:1; fill:none" points="
  1244.2,1503.47 1244.2,1493.63 
  "/>
<polyline clip-path="url(#clip7501)" style="stroke:#000000; stroke-width:4; stroke-opacity:1; fill:none" points="
  1514.32,1503.47 1514.32,1493.63 
  "/>
<polyline clip-path="url(#clip7501)" style="stroke:#000000; stroke-width:4; stroke-opacity:1; fill:none" points="
  1784.45,1503.47 1784.45,1493.63 
  "/>
<polyline clip-path="url(#clip7501)" style="stroke:#000000; stroke-width:4; stroke-opacity:1; fill:none" points="
  2054.58,1503.47 2054.58,1493.63 
  "/>
<polyline clip-path="url(#clip7501)" style="stroke:#000000; stroke-width:4; stroke-opacity:1; fill:none" points="
  295.446,1439.63 325.834,1439.63 
  "/>
<polyline clip-path="url(#clip7501)" style="stroke:#000000; stroke-width:4; stroke-opacity:1; fill:none" points="
  295.446,1318.68 325.834,1318.68 
  "/>
<polyline clip-path="url(#clip7501)" style="stroke:#000000; stroke-width:4; stroke-opacity:1; fill:none" points="
  295.446,1197.73 325.834,1197.73 
  "/>
<polyline clip-path="url(#clip7501)" style="stroke:#000000; stroke-width:4; stroke-opacity:1; fill:none" points="
  295.446,1076.78 325.834,1076.78 
  "/>
<polyline clip-path="url(#clip7501)" style="stroke:#000000; stroke-width:4; stroke-opacity:1; fill:none" points="
  295.446,955.823 325.834,955.823 
  "/>
<g clip-path="url(#clip7501)">
<text style="fill:#000000; fill-opacity:1; font-family:Arial,Helvetica Neue,Helvetica,sans-serif; font-size:48; text-anchor:middle;" transform="rotate(0, 433.819, 1557.47)" x="433.819" y="1557.47">1950</text>
</g>
<g clip-path="url(#clip7501)">
<text style="fill:#000000; fill-opacity:1; font-family:Arial,Helvetica Neue,Helvetica,sans-serif; font-size:48; text-anchor:middle;" transform="rotate(0, 703.945, 1557.47)" x="703.945" y="1557.47">1960</text>
</g>
<g clip-path="url(#clip7501)">
<text style="fill:#000000; fill-opacity:1; font-family:Arial,Helvetica Neue,Helvetica,sans-serif; font-size:48; text-anchor:middle;" transform="rotate(0, 974.072, 1557.47)" x="974.072" y="1557.47">1970</text>
</g>
<g clip-path="url(#clip7501)">
<text style="fill:#000000; fill-opacity:1; font-family:Arial,Helvetica Neue,Helvetica,sans-serif; font-size:48; text-anchor:middle;" transform="rotate(0, 1244.2, 1557.47)" x="1244.2" y="1557.47">1980</text>
</g>
<g clip-path="url(#clip7501)">
<text style="fill:#000000; fill-opacity:1; font-family:Arial,Helvetica Neue,Helvetica,sans-serif; font-size:48; text-anchor:middle;" transform="rotate(0, 1514.32, 1557.47)" x="1514.32" y="1557.47">1990</text>
</g>
<g clip-path="url(#clip7501)">
<text style="fill:#000000; fill-opacity:1; font-family:Arial,Helvetica Neue,Helvetica,sans-serif; font-size:48; text-anchor:middle;" transform="rotate(0, 1784.45, 1557.47)" x="1784.45" y="1557.47">2000</text>
</g>
<g clip-path="url(#clip7501)">
<text style="fill:#000000; fill-opacity:1; font-family:Arial,Helvetica Neue,Helvetica,sans-serif; font-size:48; text-anchor:middle;" transform="rotate(0, 2054.58, 1557.47)" x="2054.58" y="1557.47">2010</text>
</g>
<g clip-path="url(#clip7501)">
<text style="fill:#000000; fill-opacity:1; font-family:Arial,Helvetica Neue,Helvetica,sans-serif; font-size:48; text-anchor:start;" transform="rotate(0, 101.161, 1463.36)" x="101.161" y="1463.36">3.0×10</text>
</g>
<g clip-path="url(#clip7501)">
<text style="fill:#000000; fill-opacity:1; font-family:Arial,Helvetica Neue,Helvetica,sans-serif; font-size:38; text-anchor:start;" transform="rotate(0, 249.702, 1435.95)" x="249.702" y="1435.95">3</text>
</g>
<g clip-path="url(#clip7501)">
<text style="fill:#000000; fill-opacity:1; font-family:Arial,Helvetica Neue,Helvetica,sans-serif; font-size:48; text-anchor:start;" transform="rotate(0, 101.161, 1342.41)" x="101.161" y="1342.41">6.0×10</text>
</g>
<g clip-path="url(#clip7501)">
<text style="fill:#000000; fill-opacity:1; font-family:Arial,Helvetica Neue,Helvetica,sans-serif; font-size:38; text-anchor:start;" transform="rotate(0, 249.702, 1315)" x="249.702" y="1315">3</text>
</g>
<g clip-path="url(#clip7501)">
<text style="fill:#000000; fill-opacity:1; font-family:Arial,Helvetica Neue,Helvetica,sans-serif; font-size:48; text-anchor:start;" transform="rotate(0, 101.161, 1221.46)" x="101.161" y="1221.46">9.0×10</text>
</g>
<g clip-path="url(#clip7501)">
<text style="fill:#000000; fill-opacity:1; font-family:Arial,Helvetica Neue,Helvetica,sans-serif; font-size:38; text-anchor:start;" transform="rotate(0, 249.702, 1194.04)" x="249.702" y="1194.04">3</text>
</g>
<g clip-path="url(#clip7501)">
<text style="fill:#000000; fill-opacity:1; font-family:Arial,Helvetica Neue,Helvetica,sans-serif; font-size:48; text-anchor:start;" transform="rotate(0, 101.161, 1100.5)" x="101.161" y="1100.5">1.2×10</text>
</g>
<g clip-path="url(#clip7501)">
<text style="fill:#000000; fill-opacity:1; font-family:Arial,Helvetica Neue,Helvetica,sans-serif; font-size:38; text-anchor:start;" transform="rotate(0, 249.702, 1073.09)" x="249.702" y="1073.09">4</text>
</g>
<g clip-path="url(#clip7501)">
<text style="fill:#000000; fill-opacity:1; font-family:Arial,Helvetica Neue,Helvetica,sans-serif; font-size:48; text-anchor:start;" transform="rotate(0, 101.161, 979.551)" x="101.161" y="979.551">1.5×10</text>
</g>
<g clip-path="url(#clip7501)">
<text style="fill:#000000; fill-opacity:1; font-family:Arial,Helvetica Neue,Helvetica,sans-serif; font-size:38; text-anchor:start;" transform="rotate(0, 249.702, 952.14)" x="249.702" y="952.14">4</text>
</g>
<polyline clip-path="url(#clip7504)" style="stroke:#ff0000; stroke-width:4; stroke-opacity:1; fill:none" points="
  352.781,1484.9 359.534,1483.99 366.287,1483.08 373.04,1482.17 379.793,1481.25 386.547,1480.32 393.3,1479.38 400.053,1478.42 406.806,1477.44 413.559,1476.43 
  420.312,1475.4 427.066,1474.33 433.819,1473.24 440.572,1472.12 447.325,1470.98 454.078,1469.84 460.831,1468.69 467.584,1467.54 474.338,1466.41 481.091,1465.3 
  487.844,1464.21 494.597,1463.14 501.35,1462.09 508.103,1461.08 514.857,1460.1 521.61,1459.15 528.363,1458.23 535.116,1457.33 541.869,1456.46 548.622,1455.61 
  555.376,1454.77 562.129,1453.94 568.882,1453.14 575.635,1452.35 582.388,1451.57 589.141,1450.82 595.895,1450.09 602.648,1449.37 609.401,1448.66 616.154,1447.97 
  622.907,1447.27 629.66,1446.57 636.414,1445.86 643.167,1445.14 649.92,1444.39 656.673,1443.6 663.426,1442.78 670.179,1441.92 676.933,1441.02 683.686,1440.08 
  690.439,1439.09 697.192,1438.07 703.945,1437 710.698,1435.88 717.451,1434.71 724.205,1433.48 730.958,1432.19 737.711,1430.83 744.464,1429.41 751.217,1427.93 
  757.97,1426.38 764.724,1424.77 771.477,1423.1 778.23,1421.37 784.983,1419.58 791.736,1417.74 798.489,1415.85 805.243,1413.92 811.996,1411.94 818.749,1409.93 
  825.502,1407.9 832.255,1405.84 839.008,1403.78 845.762,1401.7 852.515,1399.64 859.268,1397.59 866.021,1395.57 872.774,1393.58 879.527,1391.64 886.281,1389.73 
  893.034,1387.87 899.787,1386.06 906.54,1384.29 913.293,1382.57 920.046,1380.89 926.799,1379.25 933.553,1377.66 940.306,1376.12 947.059,1374.61 953.812,1373.13 
  960.565,1371.68 967.318,1370.25 974.072,1368.83 980.825,1367.41 987.578,1365.97 994.331,1364.52 1001.08,1363.05 1007.84,1361.55 1014.59,1360.04 1021.34,1358.5 
  1028.1,1356.95 1034.85,1355.4 1041.6,1353.85 1048.36,1352.3 1055.11,1350.77 1061.86,1349.27 1068.62,1347.78 1075.37,1346.3 1082.12,1344.84 1088.88,1343.36 
  1095.63,1341.87 1102.38,1340.35 1109.13,1338.77 1115.89,1337.14 1122.64,1335.44 1129.39,1333.68 1136.15,1331.85 1142.9,1329.97 1149.65,1328.04 1156.41,1326.08 
  1163.16,1324.09 1169.91,1322.09 1176.67,1320.1 1183.42,1318.12 1190.17,1316.18 1196.93,1314.29 1203.68,1312.46 1210.43,1310.71 1217.19,1309.04 1223.94,1307.44 
  1230.69,1305.92 1237.44,1304.47 1244.2,1303.08 1250.95,1301.72 1257.7,1300.38 1264.46,1299.04 1271.21,1297.68 1277.96,1296.28 1284.72,1294.82 1291.47,1293.29 
  1298.22,1291.65 1304.98,1289.88 1311.73,1287.97 1318.48,1285.91 1325.24,1283.69 1331.99,1281.3 1338.74,1278.77 1345.5,1276.11 1352.25,1273.33 1359,1270.46 
  1365.75,1267.51 1372.51,1264.5 1379.26,1261.45 1386.01,1258.37 1392.77,1255.28 1399.52,1252.18 1406.27,1249.09 1413.03,1246.02 1419.78,1242.97 1426.53,1239.95 
  1433.29,1236.96 1440.04,1234.01 1446.79,1231.12 1453.55,1228.28 1460.3,1225.5 1467.05,1222.8 1473.81,1220.17 1480.56,1217.63 1487.31,1215.16 1494.07,1212.79 
  1500.82,1210.49 1507.57,1208.26 1514.32,1206.1 1521.08,1203.99 1527.83,1201.91 1534.58,1199.85 1541.34,1197.77 1548.09,1195.67 1554.84,1193.51 1561.6,1191.29 
  1568.35,1188.99 1575.1,1186.6 1581.86,1184.12 1588.61,1181.54 1595.36,1178.85 1602.12,1176.06 1608.87,1173.16 1615.62,1170.15 1622.38,1167.03 1629.13,1163.79 
  1635.88,1160.45 1642.63,1156.99 1649.39,1153.43 1656.14,1149.75 1662.89,1145.96 1669.65,1142.06 1676.4,1138.05 1683.15,1133.94 1689.91,1129.73 1696.66,1125.44 
  1703.41,1121.08 1710.17,1116.65 1716.92,1112.18 1723.67,1107.68 1730.43,1103.16 1737.18,1098.64 1743.93,1094.14 1750.69,1089.68 1757.44,1085.27 1764.19,1080.92 
  1770.94,1076.65 1777.7,1072.47 1784.45,1068.39 1791.2,1064.41 1797.96,1060.53 1804.71,1056.75 1811.46,1053.04 1818.22,1049.39 1824.97,1045.79 1831.72,1042.21 
  1838.48,1038.63 1845.23,1035.04 1851.98,1031.43 1858.74,1027.8 1865.49,1024.13 1872.24,1020.44 1879,1016.73 1885.75,1013.02 1892.5,1009.34 1899.25,1005.69 
  1906.01,1002.11 1912.76,998.617 1919.51,995.236 1926.27,991.991 1933.02,988.906 1939.77,986.001 1946.53,983.293 1953.28,980.796 1960.03,978.521 1966.79,976.471 
  1973.54,974.645 1980.29,973.037 1987.05,971.635 1993.8,970.422 2000.55,969.373 2007.31,968.45 2014.06,967.615 2020.81,966.819 2027.56,966.01 2034.32,965.14 
  2041.07,964.168 2047.82,963.067 2054.58,961.817 2061.33,960.406 2068.08,958.829 2074.84,957.084 2081.59,955.17 2088.34,953.088 2095.1,950.842 2101.85,948.438 
  2108.6,945.884 2115.36,943.19 2122.11,940.361 2128.86,937.405 2135.62,934.326 2142.37,931.134 2149.12,927.836 2155.87,924.445 2162.63,920.973 2169.38,917.431 
  2176.13,913.836 2182.89,910.201 2189.64,906.541 2196.39,902.865 2203.15,899.18 2209.9,895.491 2216.65,891.799 2223.41,888.101 2230.16,884.398 2236.91,880.69 
  2243.67,876.978 2250.42,873.26 2257.17,869.539 2263.93,865.817 
  "/>
<polygon clip-path="url(#clip7501)" points="
367.446,1051.72 733.172,1051.72 733.172,930.764 367.446,930.764 
  " fill="#ffffff" fill-opacity="1"/>
<polyline clip-path="url(#clip7501)" style="stroke:#000000; stroke-width:4; stroke-opacity:1; fill:none" points="
  367.446,1051.72 733.172,1051.72 733.172,930.764 367.446,930.764 367.446,1051.72 
  "/>
<polyline clip-path="url(#clip7501)" style="stroke:#ff0000; stroke-width:4; stroke-opacity:1; fill:none" points="
  391.446,991.244 535.446,991.244 
  "/>
<g clip-path="url(#clip7501)">
<text style="fill:#000000; fill-opacity:1; font-family:Arial,Helvetica Neue,Helvetica,sans-serif; font-size:48; text-anchor:start;" transform="rotate(0, 559.446, 1008.74)" x="559.446" y="1008.74">Trend</text>
</g>
</svg>
