<?xml version="1.0" encoding="utf-8"?>
<svg xmlns="http://www.w3.org/2000/svg" xmlns:xlink="http://www.w3.org/1999/xlink" width="600" height="400" viewBox="0 0 2400 1600">
<defs>
  <clipPath id="clip1200">
    <rect x="0" y="0" width="2000" height="2000"/>
  </clipPath>
</defs>
<defs>
  <clipPath id="clip1201">
    <rect x="0" y="0" width="2400" height="1600"/>
  </clipPath>
</defs>
<polygon clip-path="url(#clip1201)" points="
0,1600 2400,1600 2400,0 0,0 
  " fill="#ffffff" fill-opacity="1"/>
<defs>
  <clipPath id="clip1202">
    <rect x="480" y="0" width="1681" height="1600"/>
  </clipPath>
</defs>
<polygon clip-path="url(#clip1201)" points="
189.504,1503.47 2321.26,1503.47 2321.26,47.2441 189.504,47.2441 
  " fill="#ffffff" fill-opacity="1"/>
<defs>
  <clipPath id="clip1203">
    <rect x="189" y="47" width="2133" height="1457"/>
  </clipPath>
</defs>
<polyline clip-path="url(#clip1203)" style="stroke:#000000; stroke-width:2; stroke-opacity:0.1; fill:none" points="
  249.262,1503.47 249.262,47.2441 
  "/>
<polyline clip-path="url(#clip1203)" style="stroke:#000000; stroke-width:2; stroke-opacity:0.1; fill:none" points="
  728.367,1503.47 728.367,47.2441 
  "/>
<polyline clip-path="url(#clip1203)" style="stroke:#000000; stroke-width:2; stroke-opacity:0.1; fill:none" points="
  1207.47,1503.47 1207.47,47.2441 
  "/>
<polyline clip-path="url(#clip1203)" style="stroke:#000000; stroke-width:2; stroke-opacity:0.1; fill:none" points="
  1686.58,1503.47 1686.58,47.2441 
  "/>
<polyline clip-path="url(#clip1203)" style="stroke:#000000; stroke-width:2; stroke-opacity:0.1; fill:none" points="
  2165.68,1503.47 2165.68,47.2441 
  "/>
<polyline clip-path="url(#clip1203)" style="stroke:#000000; stroke-width:2; stroke-opacity:0.1; fill:none" points="
  189.504,1414.82 2321.26,1414.82 
  "/>
<polyline clip-path="url(#clip1203)" style="stroke:#000000; stroke-width:2; stroke-opacity:0.1; fill:none" points="
  189.504,1163.89 2321.26,1163.89 
  "/>
<polyline clip-path="url(#clip1203)" style="stroke:#000000; stroke-width:2; stroke-opacity:0.1; fill:none" points="
  189.504,912.958 2321.26,912.958 
  "/>
<polyline clip-path="url(#clip1203)" style="stroke:#000000; stroke-width:2; stroke-opacity:0.1; fill:none" points="
  189.504,662.026 2321.26,662.026 
  "/>
<polyline clip-path="url(#clip1203)" style="stroke:#000000; stroke-width:2; stroke-opacity:0.1; fill:none" points="
  189.504,411.093 2321.26,411.093 
  "/>
<polyline clip-path="url(#clip1203)" style="stroke:#000000; stroke-width:2; stroke-opacity:0.1; fill:none" points="
  189.504,160.161 2321.26,160.161 
  "/>
<polyline clip-path="url(#clip1201)" style="stroke:#000000; stroke-width:4; stroke-opacity:1; fill:none" points="
  189.504,1503.47 2321.26,1503.47 
  "/>
<polyline clip-path="url(#clip1201)" style="stroke:#000000; stroke-width:4; stroke-opacity:1; fill:none" points="
  189.504,1503.47 189.504,47.2441 
  "/>
<polyline clip-path="url(#clip1201)" style="stroke:#000000; stroke-width:4; stroke-opacity:1; fill:none" points="
  249.262,1503.47 249.262,1481.63 
  "/>
<polyline clip-path="url(#clip1201)" style="stroke:#000000; stroke-width:4; stroke-opacity:1; fill:none" points="
  728.367,1503.47 728.367,1481.63 
  "/>
<polyline clip-path="url(#clip1201)" style="stroke:#000000; stroke-width:4; stroke-opacity:1; fill:none" points="
  1207.47,1503.47 1207.47,1481.63 
  "/>
<polyline clip-path="url(#clip1201)" style="stroke:#000000; stroke-width:4; stroke-opacity:1; fill:none" points="
  1686.58,1503.47 1686.58,1481.63 
  "/>
<polyline clip-path="url(#clip1201)" style="stroke:#000000; stroke-width:4; stroke-opacity:1; fill:none" points="
  2165.68,1503.47 2165.68,1481.63 
  "/>
<polyline clip-path="url(#clip1201)" style="stroke:#000000; stroke-width:4; stroke-opacity:1; fill:none" points="
  189.504,1414.82 221.48,1414.82 
  "/>
<polyline clip-path="url(#clip1201)" style="stroke:#000000; stroke-width:4; stroke-opacity:1; fill:none" points="
  189.504,1163.89 221.48,1163.89 
  "/>
<polyline clip-path="url(#clip1201)" style="stroke:#000000; stroke-width:4; stroke-opacity:1; fill:none" points="
  189.504,912.958 221.48,912.958 
  "/>
<polyline clip-path="url(#clip1201)" style="stroke:#000000; stroke-width:4; stroke-opacity:1; fill:none" points="
  189.504,662.026 221.48,662.026 
  "/>
<polyline clip-path="url(#clip1201)" style="stroke:#000000; stroke-width:4; stroke-opacity:1; fill:none" points="
  189.504,411.093 221.48,411.093 
  "/>
<polyline clip-path="url(#clip1201)" style="stroke:#000000; stroke-width:4; stroke-opacity:1; fill:none" points="
  189.504,160.161 221.48,160.161 
  "/>
<g clip-path="url(#clip1201)">
<text style="fill:#000000; fill-opacity:1; font-family:Arial,Helvetica Neue,Helvetica,sans-serif; font-size:48; text-anchor:middle;" transform="rotate(0, 249.262, 1557.47)" x="249.262" y="1557.47">0</text>
</g>
<g clip-path="url(#clip1201)">
<text style="fill:#000000; fill-opacity:1; font-family:Arial,Helvetica Neue,Helvetica,sans-serif; font-size:48; text-anchor:middle;" transform="rotate(0, 728.367, 1557.47)" x="728.367" y="1557.47">5</text>
</g>
<g clip-path="url(#clip1201)">
<text style="fill:#000000; fill-opacity:1; font-family:Arial,Helvetica Neue,Helvetica,sans-serif; font-size:48; text-anchor:middle;" transform="rotate(0, 1207.47, 1557.47)" x="1207.47" y="1557.47">10</text>
</g>
<g clip-path="url(#clip1201)">
<text style="fill:#000000; fill-opacity:1; font-family:Arial,Helvetica Neue,Helvetica,sans-serif; font-size:48; text-anchor:middle;" transform="rotate(0, 1686.58, 1557.47)" x="1686.58" y="1557.47">15</text>
</g>
<g clip-path="url(#clip1201)">
<text style="fill:#000000; fill-opacity:1; font-family:Arial,Helvetica Neue,Helvetica,sans-serif; font-size:48; text-anchor:middle;" transform="rotate(0, 2165.68, 1557.47)" x="2165.68" y="1557.47">20</text>
</g>
<g clip-path="url(#clip1201)">
<text style="fill:#000000; fill-opacity:1; font-family:Arial,Helvetica Neue,Helvetica,sans-serif; font-size:48; text-anchor:end;" transform="rotate(0, 165.504, 1432.32)" x="165.504" y="1432.32">-0.2</text>
</g>
<g clip-path="url(#clip1201)">
<text style="fill:#000000; fill-opacity:1; font-family:Arial,Helvetica Neue,Helvetica,sans-serif; font-size:48; text-anchor:end;" transform="rotate(0, 165.504, 1181.39)" x="165.504" y="1181.39">-0.1</text>
</g>
<g clip-path="url(#clip1201)">
<text style="fill:#000000; fill-opacity:1; font-family:Arial,Helvetica Neue,Helvetica,sans-serif; font-size:48; text-anchor:end;" transform="rotate(0, 165.504, 930.458)" x="165.504" y="930.458">0.0</text>
</g>
<g clip-path="url(#clip1201)">
<text style="fill:#000000; fill-opacity:1; font-family:Arial,Helvetica Neue,Helvetica,sans-serif; font-size:48; text-anchor:end;" transform="rotate(0, 165.504, 679.526)" x="165.504" y="679.526">0.1</text>
</g>
<g clip-path="url(#clip1201)">
<text style="fill:#000000; fill-opacity:1; font-family:Arial,Helvetica Neue,Helvetica,sans-serif; font-size:48; text-anchor:end;" transform="rotate(0, 165.504, 428.593)" x="165.504" y="428.593">0.2</text>
</g>
<g clip-path="url(#clip1201)">
<text style="fill:#000000; fill-opacity:1; font-family:Arial,Helvetica Neue,Helvetica,sans-serif; font-size:48; text-anchor:end;" transform="rotate(0, 165.504, 177.661)" x="165.504" y="177.661">0.3</text>
</g>
<polygon clip-path="url(#clip1203)" points="
306.754,88.4582 306.754,912.958 383.411,912.958 383.411,88.4582 306.754,88.4582 306.754,88.4582 
  " fill="#009af9" fill-opacity="1"/>
<polyline clip-path="url(#clip1203)" style="stroke:#000000; stroke-width:4; stroke-opacity:1; fill:none" points="
  306.754,88.4582 306.754,912.958 383.411,912.958 383.411,88.4582 306.754,88.4582 
  "/>
<polygon clip-path="url(#clip1203)" points="
402.575,782.874 402.575,912.958 479.232,912.958 479.232,782.874 402.575,782.874 402.575,782.874 
  " fill="#009af9" fill-opacity="1"/>
<polyline clip-path="url(#clip1203)" style="stroke:#000000; stroke-width:4; stroke-opacity:1; fill:none" points="
  402.575,782.874 402.575,912.958 479.232,912.958 479.232,782.874 402.575,782.874 
  "/>
<polygon clip-path="url(#clip1203)" points="
498.396,1259.2 498.396,912.958 575.053,912.958 575.053,1259.2 498.396,1259.2 498.396,1259.2 
  " fill="#009af9" fill-opacity="1"/>
<polyline clip-path="url(#clip1203)" style="stroke:#000000; stroke-width:4; stroke-opacity:1; fill:none" points="
  498.396,1259.2 498.396,912.958 575.053,912.958 575.053,1259.2 498.396,1259.2 
  "/>
<polygon clip-path="url(#clip1203)" points="
594.217,1235.5 594.217,912.958 670.874,912.958 670.874,1235.5 594.217,1235.5 594.217,1235.5 
  " fill="#009af9" fill-opacity="1"/>
<polyline clip-path="url(#clip1203)" style="stroke:#000000; stroke-width:4; stroke-opacity:1; fill:none" points="
  594.217,1235.5 594.217,912.958 670.874,912.958 670.874,1235.5 594.217,1235.5 
  "/>
<polygon clip-path="url(#clip1203)" points="
690.038,1247.64 690.038,912.958 766.695,912.958 766.695,1247.64 690.038,1247.64 690.038,1247.64 
  " fill="#009af9" fill-opacity="1"/>
<polyline clip-path="url(#clip1203)" style="stroke:#000000; stroke-width:4; stroke-opacity:1; fill:none" points="
  690.038,1247.64 690.038,912.958 766.695,912.958 766.695,1247.64 690.038,1247.64 
  "/>
<polygon clip-path="url(#clip1203)" points="
785.859,940.818 785.859,912.958 862.516,912.958 862.516,940.818 785.859,940.818 785.859,940.818 
  " fill="#009af9" fill-opacity="1"/>
<polyline clip-path="url(#clip1203)" style="stroke:#000000; stroke-width:4; stroke-opacity:1; fill:none" points="
  785.859,940.818 785.859,912.958 862.516,912.958 862.516,940.818 785.859,940.818 
  "/>
<polygon clip-path="url(#clip1203)" points="
881.68,1078.14 881.68,912.958 958.337,912.958 958.337,1078.14 881.68,1078.14 881.68,1078.14 
  " fill="#009af9" fill-opacity="1"/>
<polyline clip-path="url(#clip1203)" style="stroke:#000000; stroke-width:4; stroke-opacity:1; fill:none" points="
  881.68,1078.14 881.68,912.958 958.337,912.958 958.337,1078.14 881.68,1078.14 
  "/>
<polygon clip-path="url(#clip1203)" points="
977.501,1094.43 977.501,912.958 1054.16,912.958 1054.16,1094.43 977.501,1094.43 977.501,1094.43 
  " fill="#009af9" fill-opacity="1"/>
<polyline clip-path="url(#clip1203)" style="stroke:#000000; stroke-width:4; stroke-opacity:1; fill:none" points="
  977.501,1094.43 977.501,912.958 1054.16,912.958 1054.16,1094.43 977.501,1094.43 
  "/>
<polygon clip-path="url(#clip1203)" points="
1073.32,816.718 1073.32,912.958 1149.98,912.958 1149.98,816.718 1073.32,816.718 1073.32,816.718 
  " fill="#009af9" fill-opacity="1"/>
<polyline clip-path="url(#clip1203)" style="stroke:#000000; stroke-width:4; stroke-opacity:1; fill:none" points="
  1073.32,816.718 1073.32,912.958 1149.98,912.958 1149.98,816.718 1073.32,816.718 
  "/>
<polygon clip-path="url(#clip1203)" points="
1169.14,980.43 1169.14,912.958 1245.8,912.958 1245.8,980.43 1169.14,980.43 1169.14,980.43 
  " fill="#009af9" fill-opacity="1"/>
<polyline clip-path="url(#clip1203)" style="stroke:#000000; stroke-width:4; stroke-opacity:1; fill:none" points="
  1169.14,980.43 1169.14,912.958 1245.8,912.958 1245.8,980.43 1169.14,980.43 
  "/>
<polygon clip-path="url(#clip1203)" points="
1264.96,1132.6 1264.96,912.958 1341.62,912.958 1341.62,1132.6 1264.96,1132.6 1264.96,1132.6 
  " fill="#009af9" fill-opacity="1"/>
<polyline clip-path="url(#clip1203)" style="stroke:#000000; stroke-width:4; stroke-opacity:1; fill:none" points="
  1264.96,1132.6 1264.96,912.958 1341.62,912.958 1341.62,1132.6 1264.96,1132.6 
  "/>
<polygon clip-path="url(#clip1203)" points="
1360.79,1462.26 1360.79,912.958 1437.44,912.958 1437.44,1462.26 1360.79,1462.26 1360.79,1462.26 
  " fill="#009af9" fill-opacity="1"/>
<polyline clip-path="url(#clip1203)" style="stroke:#000000; stroke-width:4; stroke-opacity:1; fill:none" points="
  1360.79,1462.26 1360.79,912.958 1437.44,912.958 1437.44,1462.26 1360.79,1462.26 
  "/>
<polygon clip-path="url(#clip1203)" points="
1456.61,1168.31 1456.61,912.958 1533.26,912.958 1533.26,1168.31 1456.61,1168.31 1456.61,1168.31 
  " fill="#009af9" fill-opacity="1"/>
<polyline clip-path="url(#clip1203)" style="stroke:#000000; stroke-width:4; stroke-opacity:1; fill:none" points="
  1456.61,1168.31 1456.61,912.958 1533.26,912.958 1533.26,1168.31 1456.61,1168.31 
  "/>
<polygon clip-path="url(#clip1203)" points="
1552.43,976.808 1552.43,912.958 1629.08,912.958 1629.08,976.808 1552.43,976.808 1552.43,976.808 
  " fill="#009af9" fill-opacity="1"/>
<polyline clip-path="url(#clip1203)" style="stroke:#000000; stroke-width:4; stroke-opacity:1; fill:none" points="
  1552.43,976.808 1552.43,912.958 1629.08,912.958 1629.08,976.808 1552.43,976.808 
  "/>
<polygon clip-path="url(#clip1203)" points="
1648.25,1214.94 1648.25,912.958 1724.9,912.958 1724.9,1214.94 1648.25,1214.94 1648.25,1214.94 
  " fill="#009af9" fill-opacity="1"/>
<polyline clip-path="url(#clip1203)" style="stroke:#000000; stroke-width:4; stroke-opacity:1; fill:none" points="
  1648.25,1214.94 1648.25,912.958 1724.9,912.958 1724.9,1214.94 1648.25,1214.94 
  "/>
<polygon clip-path="url(#clip1203)" points="
1744.07,842.43 1744.07,912.958 1820.73,912.958 1820.73,842.43 1744.07,842.43 1744.07,842.43 
  " fill="#009af9" fill-opacity="1"/>
<polyline clip-path="url(#clip1203)" style="stroke:#000000; stroke-width:4; stroke-opacity:1; fill:none" points="
  1744.07,842.43 1744.07,912.958 1820.73,912.958 1820.73,842.43 1744.07,842.43 
  "/>
<polygon clip-path="url(#clip1203)" points="
1839.89,1053.72 1839.89,912.958 1916.55,912.958 1916.55,1053.72 1839.89,1053.72 1839.89,1053.72 
  " fill="#009af9" fill-opacity="1"/>
<polyline clip-path="url(#clip1203)" style="stroke:#000000; stroke-width:4; stroke-opacity:1; fill:none" points="
  1839.89,1053.72 1839.89,912.958 1916.55,912.958 1916.55,1053.72 1839.89,1053.72 
  "/>
<polygon clip-path="url(#clip1203)" points="
1935.71,945.613 1935.71,912.958 2012.37,912.958 2012.37,945.613 1935.71,945.613 1935.71,945.613 
  " fill="#009af9" fill-opacity="1"/>
<polyline clip-path="url(#clip1203)" style="stroke:#000000; stroke-width:4; stroke-opacity:1; fill:none" points="
  1935.71,945.613 1935.71,912.958 2012.37,912.958 2012.37,945.613 1935.71,945.613 
  "/>
<polygon clip-path="url(#clip1203)" points="
2031.53,1027.81 2031.53,912.958 2108.19,912.958 2108.19,1027.81 2031.53,1027.81 2031.53,1027.81 
  " fill="#009af9" fill-opacity="1"/>
<polyline clip-path="url(#clip1203)" style="stroke:#000000; stroke-width:4; stroke-opacity:1; fill:none" points="
  2031.53,1027.81 2031.53,912.958 2108.19,912.958 2108.19,1027.81 2031.53,1027.81 
  "/>
<polygon clip-path="url(#clip1203)" points="
2127.35,1017.37 2127.35,912.958 2204.01,912.958 2204.01,1017.37 2127.35,1017.37 2127.35,1017.37 
  " fill="#009af9" fill-opacity="1"/>
<polyline clip-path="url(#clip1203)" style="stroke:#000000; stroke-width:4; stroke-opacity:1; fill:none" points="
  2127.35,1017.37 2127.35,912.958 2204.01,912.958 2204.01,1017.37 2127.35,1017.37 
  "/>
<polygon clip-path="url(#clip1201)" points="
1958.43,251.724 2249.26,251.724 2249.26,130.764 1958.43,130.764 
  " fill="#ffffff" fill-opacity="1"/>
<polyline clip-path="url(#clip1201)" style="stroke:#000000; stroke-width:4; stroke-opacity:1; fill:none" points="
  1958.43,251.724 2249.26,251.724 2249.26,130.764 1958.43,130.764 1958.43,251.724 
  "/>
<polygon clip-path="url(#clip1201)" points="
1982.43,215.436 2126.43,215.436 2126.43,167.052 1982.43,167.052 1982.43,215.436 
  " fill="#009af9" fill-opacity="1"/>
<polyline clip-path="url(#clip1201)" style="stroke:#000000; stroke-width:4; stroke-opacity:1; fill:none" points="
  1982.43,215.436 2126.43,215.436 2126.43,167.052 1982.43,167.052 1982.43,215.436 
  "/>
<g clip-path="url(#clip1201)">
<text style="fill:#000000; fill-opacity:1; font-family:Arial,Helvetica Neue,Helvetica,sans-serif; font-size:48; text-anchor:start;" transform="rotate(0, 2150.43, 208.744)" x="2150.43" y="208.744">y1</text>
</g>
</svg>
