<?xml version="1.0" encoding="utf-8"?>
<svg xmlns="http://www.w3.org/2000/svg" xmlns:xlink="http://www.w3.org/1999/xlink" width="600" height="400" viewBox="0 0 2400 1600">
<defs>
  <clipPath id="clip0600">
    <rect x="0" y="0" width="2000" height="2000"/>
  </clipPath>
</defs>
<defs>
  <clipPath id="clip0601">
    <rect x="0" y="0" width="2400" height="1600"/>
  </clipPath>
</defs>
<polygon clip-path="url(#clip0601)" points="
0,1600 2400,1600 2400,0 0,0 
  " fill="#ffffff" fill-opacity="1"/>
<defs>
  <clipPath id="clip0602">
    <rect x="480" y="0" width="1681" height="1600"/>
  </clipPath>
</defs>
<polygon clip-path="url(#clip0601)" points="
202.885,1503.47 2321.26,1503.47 2321.26,47.2441 202.885,47.2441 
  " fill="#ffffff" fill-opacity="1"/>
<defs>
  <clipPath id="clip0603">
    <rect x="202" y="47" width="2119" height="1457"/>
  </clipPath>
</defs>
<polyline clip-path="url(#clip0603)" style="stroke:#000000; stroke-width:2; stroke-opacity:0.1; fill:none" points="
  347.58,1503.47 347.58,47.2441 
  "/>
<polyline clip-path="url(#clip0603)" style="stroke:#000000; stroke-width:2; stroke-opacity:0.1; fill:none" points="
  630.049,1503.47 630.049,47.2441 
  "/>
<polyline clip-path="url(#clip0603)" style="stroke:#000000; stroke-width:2; stroke-opacity:0.1; fill:none" points="
  912.517,1503.47 912.517,47.2441 
  "/>
<polyline clip-path="url(#clip0603)" style="stroke:#000000; stroke-width:2; stroke-opacity:0.1; fill:none" points="
  1194.99,1503.47 1194.99,47.2441 
  "/>
<polyline clip-path="url(#clip0603)" style="stroke:#000000; stroke-width:2; stroke-opacity:0.1; fill:none" points="
  1477.46,1503.47 1477.46,47.2441 
  "/>
<polyline clip-path="url(#clip0603)" style="stroke:#000000; stroke-width:2; stroke-opacity:0.1; fill:none" points="
  1759.92,1503.47 1759.92,47.2441 
  "/>
<polyline clip-path="url(#clip0603)" style="stroke:#000000; stroke-width:2; stroke-opacity:0.1; fill:none" points="
  2042.39,1503.47 2042.39,47.2441 
  "/>
<polyline clip-path="url(#clip0603)" style="stroke:#000000; stroke-width:2; stroke-opacity:0.1; fill:none" points="
  202.885,1438.33 2321.26,1438.33 
  "/>
<polyline clip-path="url(#clip0603)" style="stroke:#000000; stroke-width:2; stroke-opacity:0.1; fill:none" points="
  202.885,1080.23 2321.26,1080.23 
  "/>
<polyline clip-path="url(#clip0603)" style="stroke:#000000; stroke-width:2; stroke-opacity:0.1; fill:none" points="
  202.885,722.117 2321.26,722.117 
  "/>
<polyline clip-path="url(#clip0603)" style="stroke:#000000; stroke-width:2; stroke-opacity:0.1; fill:none" points="
  202.885,364.009 2321.26,364.009 
  "/>
<polyline clip-path="url(#clip0601)" style="stroke:#000000; stroke-width:4; stroke-opacity:1; fill:none" points="
  202.885,1503.47 2321.26,1503.47 
  "/>
<polyline clip-path="url(#clip0601)" style="stroke:#000000; stroke-width:4; stroke-opacity:1; fill:none" points="
  202.885,1503.47 202.885,47.2441 
  "/>
<polyline clip-path="url(#clip0601)" style="stroke:#000000; stroke-width:4; stroke-opacity:1; fill:none" points="
  347.58,1503.47 347.58,1481.63 
  "/>
<polyline clip-path="url(#clip0601)" style="stroke:#000000; stroke-width:4; stroke-opacity:1; fill:none" points="
  630.049,1503.47 630.049,1481.63 
  "/>
<polyline clip-path="url(#clip0601)" style="stroke:#000000; stroke-width:4; stroke-opacity:1; fill:none" points="
  912.517,1503.47 912.517,1481.63 
  "/>
<polyline clip-path="url(#clip0601)" style="stroke:#000000; stroke-width:4; stroke-opacity:1; fill:none" points="
  1194.99,1503.47 1194.99,1481.63 
  "/>
<polyline clip-path="url(#clip0601)" style="stroke:#000000; stroke-width:4; stroke-opacity:1; fill:none" points="
  1477.46,1503.47 1477.46,1481.63 
  "/>
<polyline clip-path="url(#clip0601)" style="stroke:#000000; stroke-width:4; stroke-opacity:1; fill:none" points="
  1759.92,1503.47 1759.92,1481.63 
  "/>
<polyline clip-path="url(#clip0601)" style="stroke:#000000; stroke-width:4; stroke-opacity:1; fill:none" points="
  2042.39,1503.47 2042.39,1481.63 
  "/>
<polyline clip-path="url(#clip0601)" style="stroke:#000000; stroke-width:4; stroke-opacity:1; fill:none" points="
  202.885,1438.33 234.661,1438.33 
  "/>
<polyline clip-path="url(#clip0601)" style="stroke:#000000; stroke-width:4; stroke-opacity:1; fill:none" points="
  202.885,1080.23 234.661,1080.23 
  "/>
<polyline clip-path="url(#clip0601)" style="stroke:#000000; stroke-width:4; stroke-opacity:1; fill:none" points="
  202.885,722.117 234.661,722.117 
  "/>
<polyline clip-path="url(#clip0601)" style="stroke:#000000; stroke-width:4; stroke-opacity:1; fill:none" points="
  202.885,364.009 234.661,364.009 
  "/>
<g clip-path="url(#clip0601)">
<text style="fill:#000000; fill-opacity:1; font-family:Arial,Helvetica Neue,Helvetica,sans-serif; font-size:48; text-anchor:middle;" transform="rotate(0, 347.58, 1557.47)" x="347.58" y="1557.47">1950</text>
</g>
<g clip-path="url(#clip0601)">
<text style="fill:#000000; fill-opacity:1; font-family:Arial,Helvetica Neue,Helvetica,sans-serif; font-size:48; text-anchor:middle;" transform="rotate(0, 630.049, 1557.47)" x="630.049" y="1557.47">1960</text>
</g>
<g clip-path="url(#clip0601)">
<text style="fill:#000000; fill-opacity:1; font-family:Arial,Helvetica Neue,Helvetica,sans-serif; font-size:48; text-anchor:middle;" transform="rotate(0, 912.517, 1557.47)" x="912.517" y="1557.47">1970</text>
</g>
<g clip-path="url(#clip0601)">
<text style="fill:#000000; fill-opacity:1; font-family:Arial,Helvetica Neue,Helvetica,sans-serif; font-size:48; text-anchor:middle;" transform="rotate(0, 1194.99, 1557.47)" x="1194.99" y="1557.47">1980</text>
</g>
<g clip-path="url(#clip0601)">
<text style="fill:#000000; fill-opacity:1; font-family:Arial,Helvetica Neue,Helvetica,sans-serif; font-size:48; text-anchor:middle;" transform="rotate(0, 1477.46, 1557.47)" x="1477.46" y="1557.47">1990</text>
</g>
<g clip-path="url(#clip0601)">
<text style="fill:#000000; fill-opacity:1; font-family:Arial,Helvetica Neue,Helvetica,sans-serif; font-size:48; text-anchor:middle;" transform="rotate(0, 1759.92, 1557.47)" x="1759.92" y="1557.47">2000</text>
</g>
<g clip-path="url(#clip0601)">
<text style="fill:#000000; fill-opacity:1; font-family:Arial,Helvetica Neue,Helvetica,sans-serif; font-size:48; text-anchor:middle;" transform="rotate(0, 2042.39, 1557.47)" x="2042.39" y="1557.47">2010</text>
</g>
<g clip-path="url(#clip0601)">
<text style="fill:#000000; fill-opacity:1; font-family:Arial,Helvetica Neue,Helvetica,sans-serif; font-size:48; text-anchor:end;" transform="rotate(0, 178.885, 1455.83)" x="178.885" y="1455.83">-400</text>
</g>
<g clip-path="url(#clip0601)">
<text style="fill:#000000; fill-opacity:1; font-family:Arial,Helvetica Neue,Helvetica,sans-serif; font-size:48; text-anchor:end;" transform="rotate(0, 178.885, 1097.73)" x="178.885" y="1097.73">-200</text>
</g>
<g clip-path="url(#clip0601)">
<text style="fill:#000000; fill-opacity:1; font-family:Arial,Helvetica Neue,Helvetica,sans-serif; font-size:48; text-anchor:end;" transform="rotate(0, 178.885, 739.617)" x="178.885" y="739.617">0</text>
</g>
<g clip-path="url(#clip0601)">
<text style="fill:#000000; fill-opacity:1; font-family:Arial,Helvetica Neue,Helvetica,sans-serif; font-size:48; text-anchor:end;" transform="rotate(0, 178.885, 381.509)" x="178.885" y="381.509">200</text>
</g>
<polyline clip-path="url(#clip0603)" style="stroke:#009af9; stroke-width:4; stroke-opacity:1; fill:none" points="
  262.839,619.497 269.901,663.801 276.963,707.769 284.024,693.967 291.086,683.233 298.148,666.658 305.21,688.258 312.271,726.946 319.333,820.262 326.395,876.996 
  333.456,883.556 340.518,963.355 347.58,868.875 354.642,805.685 361.703,707.938 368.765,681.702 375.827,676.983 382.889,656.163 389.95,619.941 397.012,659.945 
  404.074,663.101 411.135,701.51 418.197,716.338 425.259,617.595 432.321,577.041 439.382,583.309 446.444,650.232 453.506,760.028 460.567,819.796 467.629,852.995 
  474.691,838.837 481.753,786.117 488.814,688.613 495.876,645.488 502.938,614.069 509.999,617.678 517.061,669.481 524.123,660.491 531.185,695.957 538.246,645.256 
  545.308,643.433 552.37,685.799 559.431,667.587 566.493,752.591 573.555,918.054 580.617,920.094 587.678,841.04 594.74,759.703 601.802,702.417 608.864,614.67 
  615.925,668.85 622.987,692.98 630.049,618.673 637.11,689.577 644.172,727.711 651.234,849.861 658.296,869.64 665.357,826.558 672.419,795.312 679.481,744.714 
  686.542,707.816 693.604,714.983 700.666,731.66 707.728,784.789 714.789,795.982 721.851,796.994 728.913,758.528 735.974,798.836 743.036,747.319 750.098,758.322 
  757.16,758.341 764.221,825.713 771.283,750.603 778.345,747.747 785.407,696.627 792.468,618.393 799.53,526.86 806.592,584.309 813.653,616.995 820.715,636.357 
  827.777,648.506 834.839,722.28 841.9,733.924 848.962,747.545 856.024,662.067 863.085,598.832 870.147,610.509 877.209,642.547 884.271,580.918 891.332,619.49 
  898.394,631.093 905.456,731.673 912.517,809.843 919.579,858.208 926.641,847.136 933.703,999.205 940.764,838.87 947.826,855.842 954.888,855.091 961.949,897.597 
  969.011,808.462 976.073,670.09 983.135,654.613 990.196,569.606 997.258,406.022 1004.32,363.796 1011.38,482.851 1018.44,457.942 1025.5,604.338 1032.57,644.24 
  1039.63,804.658 1046.69,910.96 1053.75,1096.76 1060.81,1096.28 1067.88,1013.88 1074.94,961.33 1082,820.231 1089.06,827.716 1096.12,861.74 1103.18,872.466 
  1110.25,841.342 1117.31,726.339 1124.37,627.624 1131.43,714.189 1138.49,762.861 1145.55,426.441 1152.62,397.776 1159.68,323.538 1166.74,375.051 1173.8,431.886 
  1180.86,416.483 1187.92,450.823 1194.99,475.139 1202.05,772.39 1209.11,849.245 1216.17,697.022 1223.23,516.559 1230.29,665.419 1237.36,594.753 1244.42,802.159 
  1251.48,1072.21 1258.54,1087.45 1265.6,1214.18 1272.67,1294.5 1279.73,1241.02 1286.79,1078.05 1293.85,954.555 1300.91,819.549 1307.97,693.864 1315.04,596.924 
  1322.1,599.918 1329.16,628.705 1336.22,632.526 1343.28,646.807 1350.34,574.221 1357.41,608.906 1364.47,618.101 1371.53,690.612 1378.59,685.162 1385.65,746.127 
  1392.71,779.347 1399.78,749.428 1406.84,746.741 1413.9,631.741 1420.96,671.481 1428.02,594.284 1435.08,623.638 1442.15,535.167 1449.21,489.007 1456.27,472.191 
  1463.33,457.085 1470.39,522.407 1477.46,444.864 1484.52,476.64 1491.58,564.921 1498.64,793.737 1505.7,960.727 1512.76,931.102 1519.83,950.122 1526.89,978.684 
  1533.95,890.191 1541.01,816.141 1548.07,765.805 1555.13,713.281 1562.2,801.005 1569.26,824.54 1576.32,870.544 1583.38,776.611 1590.44,745.9 1597.5,651.051 
  1604.57,695.305 1611.63,646.686 1618.69,743.514 1625.75,843.695 1632.81,856.807 1639.87,900.24 1646.94,957.497 1654,816.574 1661.06,828.991 1668.12,818.534 
  1675.18,865.824 1682.24,770.079 1689.31,718.24 1696.37,763.638 1703.43,765.664 1710.49,769.658 1717.55,701.727 1724.62,559.642 1731.68,587.361 1738.74,605.231 
  1745.8,525.233 1752.86,334.325 1759.92,451.501 1766.99,210.234 1774.05,355.367 1781.11,395.209 1788.17,624.419 1795.23,666.357 1802.29,898.416 1809.36,994.573 
  1816.42,944.032 1823.48,976.718 1830.54,1024.58 1837.6,1171.27 1844.66,1213.82 1851.73,1161.26 1858.79,931.527 1865.85,816.2 1872.91,840.622 1879.97,823.928 
  1887.03,759.914 1894.1,701.007 1901.16,584.897 1908.22,597.169 1915.28,520.999 1922.34,503.783 1929.41,314.862 1936.47,347.887 1943.53,425.562 1950.59,311.968 
  1957.65,376.793 1964.71,246.529 1971.78,130.072 1978.84,88.4582 1985.9,318.315 1992.96,226.932 2000.02,392.429 2007.08,991.184 2014.15,1388.75 2021.21,1462.26 
  2028.27,1421.4 2035.33,1220.67 2042.39,1163.48 2049.45,973.504 2056.52,865.33 2063.58,775.347 2070.64,963.66 2077.7,862.288 2084.76,905.463 2091.82,709.437 
  2098.89,642.393 2105.95,634.259 2113.01,726.96 2120.07,852.084 2127.13,796.095 2134.19,884.726 2141.26,816.701 2148.32,694.083 2155.38,913.395 2162.44,751.499 
  2169.5,546.471 2176.57,563.37 2183.63,493.623 2190.69,458.279 2197.75,502.479 2204.81,630.439 2211.87,751.554 2218.94,751.143 2226,710.331 2233.06,743.798 
  2240.12,815.902 2247.18,752.096 2254.24,679.548 2261.31,625.336 
  "/>
<polygon clip-path="url(#clip0601)" points="
1958.43,251.724 2249.26,251.724 2249.26,130.764 1958.43,130.764 
  " fill="#ffffff" fill-opacity="1"/>
<polyline clip-path="url(#clip0601)" style="stroke:#000000; stroke-width:4; stroke-opacity:1; fill:none" points="
  1958.43,251.724 2249.26,251.724 2249.26,130.764 1958.43,130.764 1958.43,251.724 
  "/>
<polyline clip-path="url(#clip0601)" style="stroke:#009af9; stroke-width:4; stroke-opacity:1; fill:none" points="
  1982.43,191.244 2126.43,191.244 
  "/>
<g clip-path="url(#clip0601)">
<text style="fill:#000000; fill-opacity:1; font-family:Arial,Helvetica Neue,Helvetica,sans-serif; font-size:48; text-anchor:start;" transform="rotate(0, 2150.43, 208.744)" x="2150.43" y="208.744">y1</text>
</g>
</svg>
