<?xml version="1.0" encoding="utf-8"?>
<svg xmlns="http://www.w3.org/2000/svg" xmlns:xlink="http://www.w3.org/1999/xlink" width="600" height="400" viewBox="0 0 2400 1600">
<defs>
  <clipPath id="clip0200">
    <rect x="0" y="0" width="2000" height="2000"/>
  </clipPath>
</defs>
<defs>
  <clipPath id="clip0201">
    <rect x="0" y="0" width="2400" height="1600"/>
  </clipPath>
</defs>
<polygon clip-path="url(#clip0201)" points="
0,1600 2400,1600 2400,0 0,0 
  " fill="#ffffff" fill-opacity="1"/>
<defs>
  <clipPath id="clip0202">
    <rect x="480" y="0" width="1681" height="1600"/>
  </clipPath>
</defs>
<polygon clip-path="url(#clip0201)" points="
161.394,1503.47 2321.26,1503.47 2321.26,47.2441 161.394,47.2441 
  " fill="#ffffff" fill-opacity="1"/>
<defs>
  <clipPath id="clip0203">
    <rect x="161" y="47" width="2161" height="1457"/>
  </clipPath>
</defs>
<polyline clip-path="url(#clip0203)" style="stroke:#000000; stroke-width:2; stroke-opacity:0.1; fill:none" points="
  162.5,1503.47 162.5,47.2441 
  "/>
<polyline clip-path="url(#clip0203)" style="stroke:#000000; stroke-width:2; stroke-opacity:0.1; fill:none" points="
  652.876,1503.47 652.876,47.2441 
  "/>
<polyline clip-path="url(#clip0203)" style="stroke:#000000; stroke-width:2; stroke-opacity:0.1; fill:none" points="
  1143.25,1503.47 1143.25,47.2441 
  "/>
<polyline clip-path="url(#clip0203)" style="stroke:#000000; stroke-width:2; stroke-opacity:0.1; fill:none" points="
  1633.63,1503.47 1633.63,47.2441 
  "/>
<polyline clip-path="url(#clip0203)" style="stroke:#000000; stroke-width:2; stroke-opacity:0.1; fill:none" points="
  2124,1503.47 2124,47.2441 
  "/>
<polyline clip-path="url(#clip0203)" style="stroke:#000000; stroke-width:2; stroke-opacity:0.1; fill:none" points="
  161.394,1439.88 2321.26,1439.88 
  "/>
<polyline clip-path="url(#clip0203)" style="stroke:#000000; stroke-width:2; stroke-opacity:0.1; fill:none" points="
  161.394,1069.13 2321.26,1069.13 
  "/>
<polyline clip-path="url(#clip0203)" style="stroke:#000000; stroke-width:2; stroke-opacity:0.1; fill:none" points="
  161.394,698.379 2321.26,698.379 
  "/>
<polyline clip-path="url(#clip0203)" style="stroke:#000000; stroke-width:2; stroke-opacity:0.1; fill:none" points="
  161.394,327.63 2321.26,327.63 
  "/>
<polyline clip-path="url(#clip0201)" style="stroke:#000000; stroke-width:4; stroke-opacity:1; fill:none" points="
  161.394,1503.47 2321.26,1503.47 
  "/>
<polyline clip-path="url(#clip0201)" style="stroke:#000000; stroke-width:4; stroke-opacity:1; fill:none" points="
  161.394,1503.47 161.394,47.2441 
  "/>
<polyline clip-path="url(#clip0201)" style="stroke:#000000; stroke-width:4; stroke-opacity:1; fill:none" points="
  162.5,1503.47 162.5,1481.63 
  "/>
<polyline clip-path="url(#clip0201)" style="stroke:#000000; stroke-width:4; stroke-opacity:1; fill:none" points="
  652.876,1503.47 652.876,1481.63 
  "/>
<polyline clip-path="url(#clip0201)" style="stroke:#000000; stroke-width:4; stroke-opacity:1; fill:none" points="
  1143.25,1503.47 1143.25,1481.63 
  "/>
<polyline clip-path="url(#clip0201)" style="stroke:#000000; stroke-width:4; stroke-opacity:1; fill:none" points="
  1633.63,1503.47 1633.63,1481.63 
  "/>
<polyline clip-path="url(#clip0201)" style="stroke:#000000; stroke-width:4; stroke-opacity:1; fill:none" points="
  2124,1503.47 2124,1481.63 
  "/>
<polyline clip-path="url(#clip0201)" style="stroke:#000000; stroke-width:4; stroke-opacity:1; fill:none" points="
  161.394,1439.88 193.792,1439.88 
  "/>
<polyline clip-path="url(#clip0201)" style="stroke:#000000; stroke-width:4; stroke-opacity:1; fill:none" points="
  161.394,1069.13 193.792,1069.13 
  "/>
<polyline clip-path="url(#clip0201)" style="stroke:#000000; stroke-width:4; stroke-opacity:1; fill:none" points="
  161.394,698.379 193.792,698.379 
  "/>
<polyline clip-path="url(#clip0201)" style="stroke:#000000; stroke-width:4; stroke-opacity:1; fill:none" points="
  161.394,327.63 193.792,327.63 
  "/>
<g clip-path="url(#clip0201)">
<text style="fill:#000000; fill-opacity:1; font-family:Arial,Helvetica Neue,Helvetica,sans-serif; font-size:48; text-anchor:middle;" transform="rotate(0, 162.5, 1557.47)" x="162.5" y="1557.47">0.0</text>
</g>
<g clip-path="url(#clip0201)">
<text style="fill:#000000; fill-opacity:1; font-family:Arial,Helvetica Neue,Helvetica,sans-serif; font-size:48; text-anchor:middle;" transform="rotate(0, 652.876, 1557.47)" x="652.876" y="1557.47">2.5</text>
</g>
<g clip-path="url(#clip0201)">
<text style="fill:#000000; fill-opacity:1; font-family:Arial,Helvetica Neue,Helvetica,sans-serif; font-size:48; text-anchor:middle;" transform="rotate(0, 1143.25, 1557.47)" x="1143.25" y="1557.47">5.0</text>
</g>
<g clip-path="url(#clip0201)">
<text style="fill:#000000; fill-opacity:1; font-family:Arial,Helvetica Neue,Helvetica,sans-serif; font-size:48; text-anchor:middle;" transform="rotate(0, 1633.63, 1557.47)" x="1633.63" y="1557.47">7.5</text>
</g>
<g clip-path="url(#clip0201)">
<text style="fill:#000000; fill-opacity:1; font-family:Arial,Helvetica Neue,Helvetica,sans-serif; font-size:48; text-anchor:middle;" transform="rotate(0, 2124, 1557.47)" x="2124" y="1557.47">10.0</text>
</g>
<g clip-path="url(#clip0201)">
<text style="fill:#000000; fill-opacity:1; font-family:Arial,Helvetica Neue,Helvetica,sans-serif; font-size:48; text-anchor:end;" transform="rotate(0, 137.394, 1457.38)" x="137.394" y="1457.38">0.0</text>
</g>
<g clip-path="url(#clip0201)">
<text style="fill:#000000; fill-opacity:1; font-family:Arial,Helvetica Neue,Helvetica,sans-serif; font-size:48; text-anchor:end;" transform="rotate(0, 137.394, 1086.63)" x="137.394" y="1086.63">0.1</text>
</g>
<g clip-path="url(#clip0201)">
<text style="fill:#000000; fill-opacity:1; font-family:Arial,Helvetica Neue,Helvetica,sans-serif; font-size:48; text-anchor:end;" transform="rotate(0, 137.394, 715.879)" x="137.394" y="715.879">0.2</text>
</g>
<g clip-path="url(#clip0201)">
<text style="fill:#000000; fill-opacity:1; font-family:Arial,Helvetica Neue,Helvetica,sans-serif; font-size:48; text-anchor:end;" transform="rotate(0, 137.394, 345.13)" x="137.394" y="345.13">0.3</text>
</g>
<polygon clip-path="url(#clip0203)" points="
280.191,88.4582 280.191,1439.88 437.111,1439.88 437.111,88.4582 280.191,88.4582 280.191,88.4582 
  " fill="#009af9" fill-opacity="1"/>
<polyline clip-path="url(#clip0203)" style="stroke:#000000; stroke-width:4; stroke-opacity:1; fill:none" points="
  280.191,88.4582 280.191,1439.88 437.111,1439.88 437.111,88.4582 280.191,88.4582 
  "/>
<polygon clip-path="url(#clip0203)" points="
476.341,481.468 476.341,1439.88 633.261,1439.88 633.261,481.468 476.341,481.468 476.341,481.468 
  " fill="#009af9" fill-opacity="1"/>
<polyline clip-path="url(#clip0203)" style="stroke:#000000; stroke-width:4; stroke-opacity:1; fill:none" points="
  476.341,481.468 476.341,1439.88 633.261,1439.88 633.261,481.468 476.341,481.468 
  "/>
<polygon clip-path="url(#clip0203)" points="
672.491,248.324 672.491,1439.88 829.411,1439.88 829.411,248.324 672.491,248.324 672.491,248.324 
  " fill="#009af9" fill-opacity="1"/>
<polyline clip-path="url(#clip0203)" style="stroke:#000000; stroke-width:4; stroke-opacity:1; fill:none" points="
  672.491,248.324 672.491,1439.88 829.411,1439.88 829.411,248.324 672.491,248.324 
  "/>
<polygon clip-path="url(#clip0203)" points="
868.641,1366.53 868.641,1439.88 1025.56,1439.88 1025.56,1366.53 868.641,1366.53 868.641,1366.53 
  " fill="#009af9" fill-opacity="1"/>
<polyline clip-path="url(#clip0203)" style="stroke:#000000; stroke-width:4; stroke-opacity:1; fill:none" points="
  868.641,1366.53 868.641,1439.88 1025.56,1439.88 1025.56,1366.53 868.641,1366.53 
  "/>
<polygon clip-path="url(#clip0203)" points="
1064.79,1308.89 1064.79,1439.88 1221.71,1439.88 1221.71,1308.89 1064.79,1308.89 1064.79,1308.89 
  " fill="#009af9" fill-opacity="1"/>
<polyline clip-path="url(#clip0203)" style="stroke:#000000; stroke-width:4; stroke-opacity:1; fill:none" points="
  1064.79,1308.89 1064.79,1439.88 1221.71,1439.88 1221.71,1308.89 1064.79,1308.89 
  "/>
<polygon clip-path="url(#clip0203)" points="
1260.94,1310.96 1260.94,1439.88 1417.86,1439.88 1417.86,1310.96 1260.94,1310.96 1260.94,1310.96 
  " fill="#009af9" fill-opacity="1"/>
<polyline clip-path="url(#clip0203)" style="stroke:#000000; stroke-width:4; stroke-opacity:1; fill:none" points="
  1260.94,1310.96 1260.94,1439.88 1417.86,1439.88 1417.86,1310.96 1260.94,1310.96 
  "/>
<polygon clip-path="url(#clip0203)" points="
1457.09,1437.46 1457.09,1439.88 1614.01,1439.88 1614.01,1437.46 1457.09,1437.46 1457.09,1437.46 
  " fill="#009af9" fill-opacity="1"/>
<polyline clip-path="url(#clip0203)" style="stroke:#000000; stroke-width:4; stroke-opacity:1; fill:none" points="
  1457.09,1437.46 1457.09,1439.88 1614.01,1439.88 1614.01,1437.46 1457.09,1437.46 
  "/>
<polygon clip-path="url(#clip0203)" points="
1653.24,1411.77 1653.24,1439.88 1810.16,1439.88 1810.16,1411.77 1653.24,1411.77 1653.24,1411.77 
  " fill="#009af9" fill-opacity="1"/>
<polyline clip-path="url(#clip0203)" style="stroke:#000000; stroke-width:4; stroke-opacity:1; fill:none" points="
  1653.24,1411.77 1653.24,1439.88 1810.16,1439.88 1810.16,1411.77 1653.24,1411.77 
  "/>
<polygon clip-path="url(#clip0203)" points="
1849.39,1462.26 1849.39,1439.88 2006.31,1439.88 2006.31,1462.26 1849.39,1462.26 1849.39,1462.26 
  " fill="#009af9" fill-opacity="1"/>
<polyline clip-path="url(#clip0203)" style="stroke:#000000; stroke-width:4; stroke-opacity:1; fill:none" points="
  1849.39,1462.26 1849.39,1439.88 2006.31,1439.88 2006.31,1462.26 1849.39,1462.26 
  "/>
<polygon clip-path="url(#clip0203)" points="
2045.54,1450.23 2045.54,1439.88 2202.46,1439.88 2202.46,1450.23 2045.54,1450.23 2045.54,1450.23 
  " fill="#009af9" fill-opacity="1"/>
<polyline clip-path="url(#clip0203)" style="stroke:#000000; stroke-width:4; stroke-opacity:1; fill:none" points="
  2045.54,1450.23 2045.54,1439.88 2202.46,1439.88 2202.46,1450.23 2045.54,1450.23 
  "/>
<polygon clip-path="url(#clip0201)" points="
1958.43,251.724 2249.26,251.724 2249.26,130.764 1958.43,130.764 
  " fill="#ffffff" fill-opacity="1"/>
<polyline clip-path="url(#clip0201)" style="stroke:#000000; stroke-width:4; stroke-opacity:1; fill:none" points="
  1958.43,251.724 2249.26,251.724 2249.26,130.764 1958.43,130.764 1958.43,251.724 
  "/>
<polygon clip-path="url(#clip0201)" points="
1982.43,215.436 2126.43,215.436 2126.43,167.052 1982.43,167.052 1982.43,215.436 
  " fill="#009af9" fill-opacity="1"/>
<polyline clip-path="url(#clip0201)" style="stroke:#000000; stroke-width:4; stroke-opacity:1; fill:none" points="
  1982.43,215.436 2126.43,215.436 2126.43,167.052 1982.43,167.052 1982.43,215.436 
  "/>
<g clip-path="url(#clip0201)">
<text style="fill:#000000; fill-opacity:1; font-family:Arial,Helvetica Neue,Helvetica,sans-serif; font-size:48; text-anchor:start;" transform="rotate(0, 2150.43, 208.744)" x="2150.43" y="208.744">y1</text>
</g>
</svg>
