<?xml version="1.0" encoding="utf-8"?>
<svg xmlns="http://www.w3.org/2000/svg" xmlns:xlink="http://www.w3.org/1999/xlink" width="600" height="400" viewBox="0 0 2400 1600">
<defs>
  <clipPath id="clip0400">
    <rect x="0" y="0" width="2000" height="2000"/>
  </clipPath>
</defs>
<defs>
  <clipPath id="clip0401">
    <rect x="0" y="0" width="2400" height="1600"/>
  </clipPath>
</defs>
<polygon clip-path="url(#clip0401)" points="
0,1600 2400,1600 2400,0 0,0 
  " fill="#ffffff" fill-opacity="1"/>
<defs>
  <clipPath id="clip0402">
    <rect x="480" y="0" width="1681" height="1600"/>
  </clipPath>
</defs>
<polygon clip-path="url(#clip0401)" points="
189.504,1503.47 2321.26,1503.47 2321.26,47.2441 189.504,47.2441 
  " fill="#ffffff" fill-opacity="1"/>
<defs>
  <clipPath id="clip0403">
    <rect x="189" y="47" width="2133" height="1457"/>
  </clipPath>
</defs>
<polyline clip-path="url(#clip0403)" style="stroke:#000000; stroke-width:2; stroke-opacity:0.1; fill:none" points="
  190.596,1503.47 190.596,47.2441 
  "/>
<polyline clip-path="url(#clip0403)" style="stroke:#000000; stroke-width:2; stroke-opacity:0.1; fill:none" points="
  674.59,1503.47 674.59,47.2441 
  "/>
<polyline clip-path="url(#clip0403)" style="stroke:#000000; stroke-width:2; stroke-opacity:0.1; fill:none" points="
  1158.58,1503.47 1158.58,47.2441 
  "/>
<polyline clip-path="url(#clip0403)" style="stroke:#000000; stroke-width:2; stroke-opacity:0.1; fill:none" points="
  1642.58,1503.47 1642.58,47.2441 
  "/>
<polyline clip-path="url(#clip0403)" style="stroke:#000000; stroke-width:2; stroke-opacity:0.1; fill:none" points="
  2126.57,1503.47 2126.57,47.2441 
  "/>
<polyline clip-path="url(#clip0403)" style="stroke:#000000; stroke-width:2; stroke-opacity:0.1; fill:none" points="
  189.504,1435.52 2321.26,1435.52 
  "/>
<polyline clip-path="url(#clip0403)" style="stroke:#000000; stroke-width:2; stroke-opacity:0.1; fill:none" points="
  189.504,1196.9 2321.26,1196.9 
  "/>
<polyline clip-path="url(#clip0403)" style="stroke:#000000; stroke-width:2; stroke-opacity:0.1; fill:none" points="
  189.504,958.28 2321.26,958.28 
  "/>
<polyline clip-path="url(#clip0403)" style="stroke:#000000; stroke-width:2; stroke-opacity:0.1; fill:none" points="
  189.504,719.66 2321.26,719.66 
  "/>
<polyline clip-path="url(#clip0403)" style="stroke:#000000; stroke-width:2; stroke-opacity:0.1; fill:none" points="
  189.504,481.041 2321.26,481.041 
  "/>
<polyline clip-path="url(#clip0403)" style="stroke:#000000; stroke-width:2; stroke-opacity:0.1; fill:none" points="
  189.504,242.422 2321.26,242.422 
  "/>
<polyline clip-path="url(#clip0401)" style="stroke:#000000; stroke-width:4; stroke-opacity:1; fill:none" points="
  189.504,1503.47 2321.26,1503.47 
  "/>
<polyline clip-path="url(#clip0401)" style="stroke:#000000; stroke-width:4; stroke-opacity:1; fill:none" points="
  189.504,1503.47 189.504,47.2441 
  "/>
<polyline clip-path="url(#clip0401)" style="stroke:#000000; stroke-width:4; stroke-opacity:1; fill:none" points="
  190.596,1503.47 190.596,1481.63 
  "/>
<polyline clip-path="url(#clip0401)" style="stroke:#000000; stroke-width:4; stroke-opacity:1; fill:none" points="
  674.59,1503.47 674.59,1481.63 
  "/>
<polyline clip-path="url(#clip0401)" style="stroke:#000000; stroke-width:4; stroke-opacity:1; fill:none" points="
  1158.58,1503.47 1158.58,1481.63 
  "/>
<polyline clip-path="url(#clip0401)" style="stroke:#000000; stroke-width:4; stroke-opacity:1; fill:none" points="
  1642.58,1503.47 1642.58,1481.63 
  "/>
<polyline clip-path="url(#clip0401)" style="stroke:#000000; stroke-width:4; stroke-opacity:1; fill:none" points="
  2126.57,1503.47 2126.57,1481.63 
  "/>
<polyline clip-path="url(#clip0401)" style="stroke:#000000; stroke-width:4; stroke-opacity:1; fill:none" points="
  189.504,1435.52 221.48,1435.52 
  "/>
<polyline clip-path="url(#clip0401)" style="stroke:#000000; stroke-width:4; stroke-opacity:1; fill:none" points="
  189.504,1196.9 221.48,1196.9 
  "/>
<polyline clip-path="url(#clip0401)" style="stroke:#000000; stroke-width:4; stroke-opacity:1; fill:none" points="
  189.504,958.28 221.48,958.28 
  "/>
<polyline clip-path="url(#clip0401)" style="stroke:#000000; stroke-width:4; stroke-opacity:1; fill:none" points="
  189.504,719.66 221.48,719.66 
  "/>
<polyline clip-path="url(#clip0401)" style="stroke:#000000; stroke-width:4; stroke-opacity:1; fill:none" points="
  189.504,481.041 221.48,481.041 
  "/>
<polyline clip-path="url(#clip0401)" style="stroke:#000000; stroke-width:4; stroke-opacity:1; fill:none" points="
  189.504,242.422 221.48,242.422 
  "/>
<g clip-path="url(#clip0401)">
<text style="fill:#000000; fill-opacity:1; font-family:Arial,Helvetica Neue,Helvetica,sans-serif; font-size:48; text-anchor:middle;" transform="rotate(0, 190.596, 1557.47)" x="190.596" y="1557.47">0.0</text>
</g>
<g clip-path="url(#clip0401)">
<text style="fill:#000000; fill-opacity:1; font-family:Arial,Helvetica Neue,Helvetica,sans-serif; font-size:48; text-anchor:middle;" transform="rotate(0, 674.59, 1557.47)" x="674.59" y="1557.47">2.5</text>
</g>
<g clip-path="url(#clip0401)">
<text style="fill:#000000; fill-opacity:1; font-family:Arial,Helvetica Neue,Helvetica,sans-serif; font-size:48; text-anchor:middle;" transform="rotate(0, 1158.58, 1557.47)" x="1158.58" y="1557.47">5.0</text>
</g>
<g clip-path="url(#clip0401)">
<text style="fill:#000000; fill-opacity:1; font-family:Arial,Helvetica Neue,Helvetica,sans-serif; font-size:48; text-anchor:middle;" transform="rotate(0, 1642.58, 1557.47)" x="1642.58" y="1557.47">7.5</text>
</g>
<g clip-path="url(#clip0401)">
<text style="fill:#000000; fill-opacity:1; font-family:Arial,Helvetica Neue,Helvetica,sans-serif; font-size:48; text-anchor:middle;" transform="rotate(0, 2126.57, 1557.47)" x="2126.57" y="1557.47">10.0</text>
</g>
<g clip-path="url(#clip0401)">
<text style="fill:#000000; fill-opacity:1; font-family:Arial,Helvetica Neue,Helvetica,sans-serif; font-size:48; text-anchor:end;" transform="rotate(0, 165.504, 1453.02)" x="165.504" y="1453.02">-0.2</text>
</g>
<g clip-path="url(#clip0401)">
<text style="fill:#000000; fill-opacity:1; font-family:Arial,Helvetica Neue,Helvetica,sans-serif; font-size:48; text-anchor:end;" transform="rotate(0, 165.504, 1214.4)" x="165.504" y="1214.4">-0.1</text>
</g>
<g clip-path="url(#clip0401)">
<text style="fill:#000000; fill-opacity:1; font-family:Arial,Helvetica Neue,Helvetica,sans-serif; font-size:48; text-anchor:end;" transform="rotate(0, 165.504, 975.78)" x="165.504" y="975.78">0.0</text>
</g>
<g clip-path="url(#clip0401)">
<text style="fill:#000000; fill-opacity:1; font-family:Arial,Helvetica Neue,Helvetica,sans-serif; font-size:48; text-anchor:end;" transform="rotate(0, 165.504, 737.16)" x="165.504" y="737.16">0.1</text>
</g>
<g clip-path="url(#clip0401)">
<text style="fill:#000000; fill-opacity:1; font-family:Arial,Helvetica Neue,Helvetica,sans-serif; font-size:48; text-anchor:end;" transform="rotate(0, 165.504, 498.541)" x="165.504" y="498.541">0.2</text>
</g>
<g clip-path="url(#clip0401)">
<text style="fill:#000000; fill-opacity:1; font-family:Arial,Helvetica Neue,Helvetica,sans-serif; font-size:48; text-anchor:end;" transform="rotate(0, 165.504, 259.922)" x="165.504" y="259.922">0.3</text>
</g>
<polygon clip-path="url(#clip0403)" points="
306.754,88.4582 306.754,958.28 461.632,958.28 461.632,88.4582 306.754,88.4582 306.754,88.4582 
  " fill="#009af9" fill-opacity="1"/>
<polyline clip-path="url(#clip0403)" style="stroke:#000000; stroke-width:4; stroke-opacity:1; fill:none" points="
  306.754,88.4582 306.754,958.28 461.632,958.28 461.632,88.4582 306.754,88.4582 
  "/>
<polygon clip-path="url(#clip0403)" points="
500.352,609.546 500.352,958.28 655.23,958.28 655.23,609.546 500.352,609.546 500.352,609.546 
  " fill="#009af9" fill-opacity="1"/>
<polyline clip-path="url(#clip0403)" style="stroke:#000000; stroke-width:4; stroke-opacity:1; fill:none" points="
  500.352,609.546 500.352,958.28 655.23,958.28 655.23,609.546 500.352,609.546 
  "/>
<polygon clip-path="url(#clip0403)" points="
693.949,427.089 693.949,958.28 848.827,958.28 848.827,427.089 693.949,427.089 693.949,427.089 
  " fill="#009af9" fill-opacity="1"/>
<polyline clip-path="url(#clip0403)" style="stroke:#000000; stroke-width:4; stroke-opacity:1; fill:none" points="
  693.949,427.089 693.949,958.28 848.827,958.28 848.827,427.089 693.949,427.089 
  "/>
<polygon clip-path="url(#clip0403)" points="
887.547,1462.26 887.547,958.28 1042.42,958.28 1042.42,1462.26 887.547,1462.26 887.547,1462.26 
  " fill="#009af9" fill-opacity="1"/>
<polyline clip-path="url(#clip0403)" style="stroke:#000000; stroke-width:4; stroke-opacity:1; fill:none" points="
  887.547,1462.26 887.547,958.28 1042.42,958.28 1042.42,1462.26 887.547,1462.26 
  "/>
<polygon clip-path="url(#clip0403)" points="
1081.14,950.58 1081.14,958.28 1236.02,958.28 1236.02,950.58 1081.14,950.58 1081.14,950.58 
  " fill="#009af9" fill-opacity="1"/>
<polyline clip-path="url(#clip0403)" style="stroke:#000000; stroke-width:4; stroke-opacity:1; fill:none" points="
  1081.14,950.58 1081.14,958.28 1236.02,958.28 1236.02,950.58 1081.14,950.58 
  "/>
<polygon clip-path="url(#clip0403)" points="
1274.74,1007.62 1274.74,958.28 1429.62,958.28 1429.62,1007.62 1274.74,1007.62 1274.74,1007.62 
  " fill="#009af9" fill-opacity="1"/>
<polyline clip-path="url(#clip0403)" style="stroke:#000000; stroke-width:4; stroke-opacity:1; fill:none" points="
  1274.74,1007.62 1274.74,958.28 1429.62,958.28 1429.62,1007.62 1274.74,1007.62 
  "/>
<polygon clip-path="url(#clip0403)" points="
1468.34,793.288 1468.34,958.28 1623.22,958.28 1623.22,793.288 1468.34,793.288 1468.34,793.288 
  " fill="#009af9" fill-opacity="1"/>
<polyline clip-path="url(#clip0403)" style="stroke:#000000; stroke-width:4; stroke-opacity:1; fill:none" points="
  1468.34,793.288 1468.34,958.28 1623.22,958.28 1623.22,793.288 1468.34,793.288 
  "/>
<polygon clip-path="url(#clip0403)" points="
1661.94,1009.59 1661.94,958.28 1816.81,958.28 1816.81,1009.59 1661.94,1009.59 1661.94,1009.59 
  " fill="#009af9" fill-opacity="1"/>
<polyline clip-path="url(#clip0403)" style="stroke:#000000; stroke-width:4; stroke-opacity:1; fill:none" points="
  1661.94,1009.59 1661.94,958.28 1816.81,958.28 1816.81,1009.59 1661.94,1009.59 
  "/>
<polygon clip-path="url(#clip0403)" points="
1855.53,988.468 1855.53,958.28 2010.41,958.28 2010.41,988.468 1855.53,988.468 1855.53,988.468 
  " fill="#009af9" fill-opacity="1"/>
<polyline clip-path="url(#clip0403)" style="stroke:#000000; stroke-width:4; stroke-opacity:1; fill:none" points="
  1855.53,988.468 1855.53,958.28 2010.41,958.28 2010.41,988.468 1855.53,988.468 
  "/>
<polygon clip-path="url(#clip0403)" points="
2049.13,989.678 2049.13,958.28 2204.01,958.28 2204.01,989.678 2049.13,989.678 2049.13,989.678 
  " fill="#009af9" fill-opacity="1"/>
<polyline clip-path="url(#clip0403)" style="stroke:#000000; stroke-width:4; stroke-opacity:1; fill:none" points="
  2049.13,989.678 2049.13,958.28 2204.01,958.28 2204.01,989.678 2049.13,989.678 
  "/>
<polygon clip-path="url(#clip0401)" points="
1958.43,251.724 2249.26,251.724 2249.26,130.764 1958.43,130.764 
  " fill="#ffffff" fill-opacity="1"/>
<polyline clip-path="url(#clip0401)" style="stroke:#000000; stroke-width:4; stroke-opacity:1; fill:none" points="
  1958.43,251.724 2249.26,251.724 2249.26,130.764 1958.43,130.764 1958.43,251.724 
  "/>
<polygon clip-path="url(#clip0401)" points="
1982.43,215.436 2126.43,215.436 2126.43,167.052 1982.43,167.052 1982.43,215.436 
  " fill="#009af9" fill-opacity="1"/>
<polyline clip-path="url(#clip0401)" style="stroke:#000000; stroke-width:4; stroke-opacity:1; fill:none" points="
  1982.43,215.436 2126.43,215.436 2126.43,167.052 1982.43,167.052 1982.43,215.436 
  "/>
<g clip-path="url(#clip0401)">
<text style="fill:#000000; fill-opacity:1; font-family:Arial,Helvetica Neue,Helvetica,sans-serif; font-size:48; text-anchor:start;" transform="rotate(0, 2150.43, 208.744)" x="2150.43" y="208.744">y1</text>
</g>
</svg>
