<?xml version="1.0" encoding="utf-8"?>
<svg xmlns="http://www.w3.org/2000/svg" xmlns:xlink="http://www.w3.org/1999/xlink" width="600" height="400" viewBox="0 0 2400 1600">
<defs>
  <clipPath id="clip0600">
    <rect x="0" y="0" width="2000" height="2000"/>
  </clipPath>
</defs>
<defs>
  <clipPath id="clip0601">
    <rect x="0" y="0" width="2400" height="1600"/>
  </clipPath>
</defs>
<polygon clip-path="url(#clip0601)" points="
0,1600 2400,1600 2400,0 0,0 
  " fill="#ffffff" fill-opacity="1"/>
<defs>
  <clipPath id="clip0602">
    <rect x="480" y="0" width="1681" height="1600"/>
  </clipPath>
</defs>
<polygon clip-path="url(#clip0601)" points="
216.266,1503.47 2321.26,1503.47 2321.26,47.2441 216.266,47.2441 
  " fill="#ffffff" fill-opacity="1"/>
<defs>
  <clipPath id="clip0603">
    <rect x="216" y="47" width="2106" height="1457"/>
  </clipPath>
</defs>
<polyline clip-path="url(#clip0603)" style="stroke:#000000; stroke-width:2; stroke-opacity:0.1; fill:none" points="
  275.274,1503.47 275.274,47.2441 
  "/>
<polyline clip-path="url(#clip0603)" style="stroke:#000000; stroke-width:2; stroke-opacity:0.1; fill:none" points="
  748.364,1503.47 748.364,47.2441 
  "/>
<polyline clip-path="url(#clip0603)" style="stroke:#000000; stroke-width:2; stroke-opacity:0.1; fill:none" points="
  1221.45,1503.47 1221.45,47.2441 
  "/>
<polyline clip-path="url(#clip0603)" style="stroke:#000000; stroke-width:2; stroke-opacity:0.1; fill:none" points="
  1694.54,1503.47 1694.54,47.2441 
  "/>
<polyline clip-path="url(#clip0603)" style="stroke:#000000; stroke-width:2; stroke-opacity:0.1; fill:none" points="
  2167.63,1503.47 2167.63,47.2441 
  "/>
<polyline clip-path="url(#clip0603)" style="stroke:#000000; stroke-width:2; stroke-opacity:0.1; fill:none" points="
  216.266,1361.21 2321.26,1361.21 
  "/>
<polyline clip-path="url(#clip0603)" style="stroke:#000000; stroke-width:2; stroke-opacity:0.1; fill:none" points="
  216.266,1071.2 2321.26,1071.2 
  "/>
<polyline clip-path="url(#clip0603)" style="stroke:#000000; stroke-width:2; stroke-opacity:0.1; fill:none" points="
  216.266,781.187 2321.26,781.187 
  "/>
<polyline clip-path="url(#clip0603)" style="stroke:#000000; stroke-width:2; stroke-opacity:0.1; fill:none" points="
  216.266,491.176 2321.26,491.176 
  "/>
<polyline clip-path="url(#clip0603)" style="stroke:#000000; stroke-width:2; stroke-opacity:0.1; fill:none" points="
  216.266,201.164 2321.26,201.164 
  "/>
<polyline clip-path="url(#clip0601)" style="stroke:#000000; stroke-width:4; stroke-opacity:1; fill:none" points="
  216.266,1503.47 2321.26,1503.47 
  "/>
<polyline clip-path="url(#clip0601)" style="stroke:#000000; stroke-width:4; stroke-opacity:1; fill:none" points="
  216.266,1503.47 216.266,47.2441 
  "/>
<polyline clip-path="url(#clip0601)" style="stroke:#000000; stroke-width:4; stroke-opacity:1; fill:none" points="
  275.274,1503.47 275.274,1481.63 
  "/>
<polyline clip-path="url(#clip0601)" style="stroke:#000000; stroke-width:4; stroke-opacity:1; fill:none" points="
  748.364,1503.47 748.364,1481.63 
  "/>
<polyline clip-path="url(#clip0601)" style="stroke:#000000; stroke-width:4; stroke-opacity:1; fill:none" points="
  1221.45,1503.47 1221.45,1481.63 
  "/>
<polyline clip-path="url(#clip0601)" style="stroke:#000000; stroke-width:4; stroke-opacity:1; fill:none" points="
  1694.54,1503.47 1694.54,1481.63 
  "/>
<polyline clip-path="url(#clip0601)" style="stroke:#000000; stroke-width:4; stroke-opacity:1; fill:none" points="
  2167.63,1503.47 2167.63,1481.63 
  "/>
<polyline clip-path="url(#clip0601)" style="stroke:#000000; stroke-width:4; stroke-opacity:1; fill:none" points="
  216.266,1361.21 247.841,1361.21 
  "/>
<polyline clip-path="url(#clip0601)" style="stroke:#000000; stroke-width:4; stroke-opacity:1; fill:none" points="
  216.266,1071.2 247.841,1071.2 
  "/>
<polyline clip-path="url(#clip0601)" style="stroke:#000000; stroke-width:4; stroke-opacity:1; fill:none" points="
  216.266,781.187 247.841,781.187 
  "/>
<polyline clip-path="url(#clip0601)" style="stroke:#000000; stroke-width:4; stroke-opacity:1; fill:none" points="
  216.266,491.176 247.841,491.176 
  "/>
<polyline clip-path="url(#clip0601)" style="stroke:#000000; stroke-width:4; stroke-opacity:1; fill:none" points="
  216.266,201.164 247.841,201.164 
  "/>
<g clip-path="url(#clip0601)">
<text style="fill:#000000; fill-opacity:1; font-family:Arial,Helvetica Neue,Helvetica,sans-serif; font-size:48; text-anchor:middle;" transform="rotate(0, 275.274, 1557.47)" x="275.274" y="1557.47">0</text>
</g>
<g clip-path="url(#clip0601)">
<text style="fill:#000000; fill-opacity:1; font-family:Arial,Helvetica Neue,Helvetica,sans-serif; font-size:48; text-anchor:middle;" transform="rotate(0, 748.364, 1557.47)" x="748.364" y="1557.47">5</text>
</g>
<g clip-path="url(#clip0601)">
<text style="fill:#000000; fill-opacity:1; font-family:Arial,Helvetica Neue,Helvetica,sans-serif; font-size:48; text-anchor:middle;" transform="rotate(0, 1221.45, 1557.47)" x="1221.45" y="1557.47">10</text>
</g>
<g clip-path="url(#clip0601)">
<text style="fill:#000000; fill-opacity:1; font-family:Arial,Helvetica Neue,Helvetica,sans-serif; font-size:48; text-anchor:middle;" transform="rotate(0, 1694.54, 1557.47)" x="1694.54" y="1557.47">15</text>
</g>
<g clip-path="url(#clip0601)">
<text style="fill:#000000; fill-opacity:1; font-family:Arial,Helvetica Neue,Helvetica,sans-serif; font-size:48; text-anchor:middle;" transform="rotate(0, 2167.63, 1557.47)" x="2167.63" y="1557.47">20</text>
</g>
<g clip-path="url(#clip0601)">
<text style="fill:#000000; fill-opacity:1; font-family:Arial,Helvetica Neue,Helvetica,sans-serif; font-size:48; text-anchor:end;" transform="rotate(0, 192.266, 1378.71)" x="192.266" y="1378.71">-0.25</text>
</g>
<g clip-path="url(#clip0601)">
<text style="fill:#000000; fill-opacity:1; font-family:Arial,Helvetica Neue,Helvetica,sans-serif; font-size:48; text-anchor:end;" transform="rotate(0, 192.266, 1088.7)" x="192.266" y="1088.7">0.00</text>
</g>
<g clip-path="url(#clip0601)">
<text style="fill:#000000; fill-opacity:1; font-family:Arial,Helvetica Neue,Helvetica,sans-serif; font-size:48; text-anchor:end;" transform="rotate(0, 192.266, 798.687)" x="192.266" y="798.687">0.25</text>
</g>
<g clip-path="url(#clip0601)">
<text style="fill:#000000; fill-opacity:1; font-family:Arial,Helvetica Neue,Helvetica,sans-serif; font-size:48; text-anchor:end;" transform="rotate(0, 192.266, 508.676)" x="192.266" y="508.676">0.50</text>
</g>
<g clip-path="url(#clip0601)">
<text style="fill:#000000; fill-opacity:1; font-family:Arial,Helvetica Neue,Helvetica,sans-serif; font-size:48; text-anchor:end;" transform="rotate(0, 192.266, 218.664)" x="192.266" y="218.664">0.75</text>
</g>
<polygon clip-path="url(#clip0603)" points="
332.045,88.4582 332.045,1071.2 407.739,1071.2 407.739,88.4582 332.045,88.4582 332.045,88.4582 
  " fill="#009af9" fill-opacity="1"/>
<polyline clip-path="url(#clip0603)" style="stroke:#000000; stroke-width:4; stroke-opacity:1; fill:none" points="
  332.045,88.4582 332.045,1071.2 407.739,1071.2 407.739,88.4582 332.045,88.4582 
  "/>
<polygon clip-path="url(#clip0603)" points="
426.663,358.591 426.663,1071.2 502.357,1071.2 502.357,358.591 426.663,358.591 426.663,358.591 
  " fill="#009af9" fill-opacity="1"/>
<polyline clip-path="url(#clip0603)" style="stroke:#000000; stroke-width:4; stroke-opacity:1; fill:none" points="
  426.663,358.591 426.663,1071.2 502.357,1071.2 502.357,358.591 426.663,358.591 
  "/>
<polygon clip-path="url(#clip0603)" points="
521.281,662.288 521.281,1071.2 596.975,1071.2 596.975,662.288 521.281,662.288 521.281,662.288 
  " fill="#009af9" fill-opacity="1"/>
<polyline clip-path="url(#clip0603)" style="stroke:#000000; stroke-width:4; stroke-opacity:1; fill:none" points="
  521.281,662.288 521.281,1071.2 596.975,1071.2 596.975,662.288 521.281,662.288 
  "/>
<polygon clip-path="url(#clip0603)" points="
615.899,935.444 615.899,1071.2 691.593,1071.2 691.593,935.444 615.899,935.444 615.899,935.444 
  " fill="#009af9" fill-opacity="1"/>
<polyline clip-path="url(#clip0603)" style="stroke:#000000; stroke-width:4; stroke-opacity:1; fill:none" points="
  615.899,935.444 615.899,1071.2 691.593,1071.2 691.593,935.444 615.899,935.444 
  "/>
<polygon clip-path="url(#clip0603)" points="
710.517,1146.92 710.517,1071.2 786.211,1071.2 786.211,1146.92 710.517,1146.92 710.517,1146.92 
  " fill="#009af9" fill-opacity="1"/>
<polyline clip-path="url(#clip0603)" style="stroke:#000000; stroke-width:4; stroke-opacity:1; fill:none" points="
  710.517,1146.92 710.517,1071.2 786.211,1071.2 786.211,1146.92 710.517,1146.92 
  "/>
<polygon clip-path="url(#clip0603)" points="
805.135,1279.02 805.135,1071.2 880.829,1071.2 880.829,1279.02 805.135,1279.02 805.135,1279.02 
  " fill="#009af9" fill-opacity="1"/>
<polyline clip-path="url(#clip0603)" style="stroke:#000000; stroke-width:4; stroke-opacity:1; fill:none" points="
  805.135,1279.02 805.135,1071.2 880.829,1071.2 880.829,1279.02 805.135,1279.02 
  "/>
<polygon clip-path="url(#clip0603)" points="
899.753,1361.82 899.753,1071.2 975.447,1071.2 975.447,1361.82 899.753,1361.82 899.753,1361.82 
  " fill="#009af9" fill-opacity="1"/>
<polyline clip-path="url(#clip0603)" style="stroke:#000000; stroke-width:4; stroke-opacity:1; fill:none" points="
  899.753,1361.82 899.753,1071.2 975.447,1071.2 975.447,1361.82 899.753,1361.82 
  "/>
<polygon clip-path="url(#clip0603)" points="
994.371,1401.56 994.371,1071.2 1070.07,1071.2 1070.07,1401.56 994.371,1401.56 994.371,1401.56 
  " fill="#009af9" fill-opacity="1"/>
<polyline clip-path="url(#clip0603)" style="stroke:#000000; stroke-width:4; stroke-opacity:1; fill:none" points="
  994.371,1401.56 994.371,1071.2 1070.07,1071.2 1070.07,1401.56 994.371,1401.56 
  "/>
<polygon clip-path="url(#clip0603)" points="
1088.99,1404.43 1088.99,1071.2 1164.68,1071.2 1164.68,1404.43 1088.99,1404.43 1088.99,1404.43 
  " fill="#009af9" fill-opacity="1"/>
<polyline clip-path="url(#clip0603)" style="stroke:#000000; stroke-width:4; stroke-opacity:1; fill:none" points="
  1088.99,1404.43 1088.99,1071.2 1164.68,1071.2 1164.68,1404.43 1088.99,1404.43 
  "/>
<polygon clip-path="url(#clip0603)" points="
1183.61,1415.2 1183.61,1071.2 1259.3,1071.2 1259.3,1415.2 1183.61,1415.2 1183.61,1415.2 
  " fill="#009af9" fill-opacity="1"/>
<polyline clip-path="url(#clip0603)" style="stroke:#000000; stroke-width:4; stroke-opacity:1; fill:none" points="
  1183.61,1415.2 1183.61,1071.2 1259.3,1071.2 1259.3,1415.2 1183.61,1415.2 
  "/>
<polygon clip-path="url(#clip0603)" points="
1278.22,1442.97 1278.22,1071.2 1353.92,1071.2 1353.92,1442.97 1278.22,1442.97 1278.22,1442.97 
  " fill="#009af9" fill-opacity="1"/>
<polyline clip-path="url(#clip0603)" style="stroke:#000000; stroke-width:4; stroke-opacity:1; fill:none" points="
  1278.22,1442.97 1278.22,1071.2 1353.92,1071.2 1353.92,1442.97 1278.22,1442.97 
  "/>
<polygon clip-path="url(#clip0603)" points="
1372.84,1462.26 1372.84,1071.2 1448.54,1071.2 1448.54,1462.26 1372.84,1462.26 1372.84,1462.26 
  " fill="#009af9" fill-opacity="1"/>
<polyline clip-path="url(#clip0603)" style="stroke:#000000; stroke-width:4; stroke-opacity:1; fill:none" points="
  1372.84,1462.26 1372.84,1071.2 1448.54,1071.2 1448.54,1462.26 1372.84,1462.26 
  "/>
<polygon clip-path="url(#clip0603)" points="
1467.46,1440.11 1467.46,1071.2 1543.16,1071.2 1543.16,1440.11 1467.46,1440.11 1467.46,1440.11 
  " fill="#009af9" fill-opacity="1"/>
<polyline clip-path="url(#clip0603)" style="stroke:#000000; stroke-width:4; stroke-opacity:1; fill:none" points="
  1467.46,1440.11 1467.46,1071.2 1543.16,1071.2 1543.16,1440.11 1467.46,1440.11 
  "/>
<polygon clip-path="url(#clip0603)" points="
1562.08,1377.16 1562.08,1071.2 1637.77,1071.2 1637.77,1377.16 1562.08,1377.16 1562.08,1377.16 
  " fill="#009af9" fill-opacity="1"/>
<polyline clip-path="url(#clip0603)" style="stroke:#000000; stroke-width:4; stroke-opacity:1; fill:none" points="
  1562.08,1377.16 1562.08,1071.2 1637.77,1071.2 1637.77,1377.16 1562.08,1377.16 
  "/>
<polygon clip-path="url(#clip0603)" points="
1656.7,1296.31 1656.7,1071.2 1732.39,1071.2 1732.39,1296.31 1656.7,1296.31 1656.7,1296.31 
  " fill="#009af9" fill-opacity="1"/>
<polyline clip-path="url(#clip0603)" style="stroke:#000000; stroke-width:4; stroke-opacity:1; fill:none" points="
  1656.7,1296.31 1656.7,1071.2 1732.39,1071.2 1732.39,1296.31 1656.7,1296.31 
  "/>
<polygon clip-path="url(#clip0603)" points="
1751.32,1188.9 1751.32,1071.2 1827.01,1071.2 1827.01,1188.9 1751.32,1188.9 1751.32,1188.9 
  " fill="#009af9" fill-opacity="1"/>
<polyline clip-path="url(#clip0603)" style="stroke:#000000; stroke-width:4; stroke-opacity:1; fill:none" points="
  1751.32,1188.9 1751.32,1071.2 1827.01,1071.2 1827.01,1188.9 1751.32,1188.9 
  "/>
<polygon clip-path="url(#clip0603)" points="
1845.93,1103.68 1845.93,1071.2 1921.63,1071.2 1921.63,1103.68 1845.93,1103.68 1845.93,1103.68 
  " fill="#009af9" fill-opacity="1"/>
<polyline clip-path="url(#clip0603)" style="stroke:#000000; stroke-width:4; stroke-opacity:1; fill:none" points="
  1845.93,1103.68 1845.93,1071.2 1921.63,1071.2 1921.63,1103.68 1845.93,1103.68 
  "/>
<polygon clip-path="url(#clip0603)" points="
1940.55,1045.42 1940.55,1071.2 2016.25,1071.2 2016.25,1045.42 1940.55,1045.42 1940.55,1045.42 
  " fill="#009af9" fill-opacity="1"/>
<polyline clip-path="url(#clip0603)" style="stroke:#000000; stroke-width:4; stroke-opacity:1; fill:none" points="
  1940.55,1045.42 1940.55,1071.2 2016.25,1071.2 2016.25,1045.42 1940.55,1045.42 
  "/>
<polygon clip-path="url(#clip0603)" points="
2035.17,1028.87 2035.17,1071.2 2110.86,1071.2 2110.86,1028.87 2035.17,1028.87 2035.17,1028.87 
  " fill="#009af9" fill-opacity="1"/>
<polyline clip-path="url(#clip0603)" style="stroke:#000000; stroke-width:4; stroke-opacity:1; fill:none" points="
  2035.17,1028.87 2035.17,1071.2 2110.86,1071.2 2110.86,1028.87 2035.17,1028.87 
  "/>
<polygon clip-path="url(#clip0603)" points="
2129.79,1037.77 2129.79,1071.2 2205.48,1071.2 2205.48,1037.77 2129.79,1037.77 2129.79,1037.77 
  " fill="#009af9" fill-opacity="1"/>
<polyline clip-path="url(#clip0603)" style="stroke:#000000; stroke-width:4; stroke-opacity:1; fill:none" points="
  2129.79,1037.77 2129.79,1071.2 2205.48,1071.2 2205.48,1037.77 2129.79,1037.77 
  "/>
<polygon clip-path="url(#clip0601)" points="
1958.43,251.724 2249.26,251.724 2249.26,130.764 1958.43,130.764 
  " fill="#ffffff" fill-opacity="1"/>
<polyline clip-path="url(#clip0601)" style="stroke:#000000; stroke-width:4; stroke-opacity:1; fill:none" points="
  1958.43,251.724 2249.26,251.724 2249.26,130.764 1958.43,130.764 1958.43,251.724 
  "/>
<polygon clip-path="url(#clip0601)" points="
1982.43,215.436 2126.43,215.436 2126.43,167.052 1982.43,167.052 1982.43,215.436 
  " fill="#009af9" fill-opacity="1"/>
<polyline clip-path="url(#clip0601)" style="stroke:#000000; stroke-width:4; stroke-opacity:1; fill:none" points="
  1982.43,215.436 2126.43,215.436 2126.43,167.052 1982.43,167.052 1982.43,215.436 
  "/>
<g clip-path="url(#clip0601)">
<text style="fill:#000000; fill-opacity:1; font-family:Arial,Helvetica Neue,Helvetica,sans-serif; font-size:48; text-anchor:start;" transform="rotate(0, 2150.43, 208.744)" x="2150.43" y="208.744">y1</text>
</g>
</svg>
