<?xml version="1.0" encoding="utf-8"?>
<svg xmlns="http://www.w3.org/2000/svg" xmlns:xlink="http://www.w3.org/1999/xlink" width="600" height="400" viewBox="0 0 2400 1600">
<defs>
  <clipPath id="clip0000">
    <rect x="0" y="0" width="2000" height="2000"/>
  </clipPath>
</defs>
<defs>
  <clipPath id="clip0001">
    <rect x="0" y="0" width="2400" height="1600"/>
  </clipPath>
</defs>
<polygon clip-path="url(#clip0001)" points="
0,1600 2400,1600 2400,0 0,0 
  " fill="#ffffff" fill-opacity="1"/>
<defs>
  <clipPath id="clip0002">
    <rect x="480" y="0" width="1681" height="1600"/>
  </clipPath>
</defs>
<polygon clip-path="url(#clip0001)" points="
148.013,1503.47 2321.26,1503.47 2321.26,47.2441 148.013,47.2441 
  " fill="#ffffff" fill-opacity="1"/>
<defs>
  <clipPath id="clip0003">
    <rect x="148" y="47" width="2174" height="1457"/>
  </clipPath>
</defs>
<polyline clip-path="url(#clip0003)" style="stroke:#000000; stroke-width:2; stroke-opacity:0.1; fill:none" points="
  207.468,1503.47 207.468,47.2441 
  "/>
<polyline clip-path="url(#clip0003)" style="stroke:#000000; stroke-width:2; stroke-opacity:0.1; fill:none" points="
  720.539,1503.47 720.539,47.2441 
  "/>
<polyline clip-path="url(#clip0003)" style="stroke:#000000; stroke-width:2; stroke-opacity:0.1; fill:none" points="
  1233.61,1503.47 1233.61,47.2441 
  "/>
<polyline clip-path="url(#clip0003)" style="stroke:#000000; stroke-width:2; stroke-opacity:0.1; fill:none" points="
  1746.68,1503.47 1746.68,47.2441 
  "/>
<polyline clip-path="url(#clip0003)" style="stroke:#000000; stroke-width:2; stroke-opacity:0.1; fill:none" points="
  2259.75,1503.47 2259.75,47.2441 
  "/>
<polyline clip-path="url(#clip0003)" style="stroke:#000000; stroke-width:2; stroke-opacity:0.1; fill:none" points="
  148.013,1333.61 2321.26,1333.61 
  "/>
<polyline clip-path="url(#clip0003)" style="stroke:#000000; stroke-width:2; stroke-opacity:0.1; fill:none" points="
  148.013,1146.96 2321.26,1146.96 
  "/>
<polyline clip-path="url(#clip0003)" style="stroke:#000000; stroke-width:2; stroke-opacity:0.1; fill:none" points="
  148.013,960.313 2321.26,960.313 
  "/>
<polyline clip-path="url(#clip0003)" style="stroke:#000000; stroke-width:2; stroke-opacity:0.1; fill:none" points="
  148.013,773.663 2321.26,773.663 
  "/>
<polyline clip-path="url(#clip0003)" style="stroke:#000000; stroke-width:2; stroke-opacity:0.1; fill:none" points="
  148.013,587.013 2321.26,587.013 
  "/>
<polyline clip-path="url(#clip0003)" style="stroke:#000000; stroke-width:2; stroke-opacity:0.1; fill:none" points="
  148.013,400.364 2321.26,400.364 
  "/>
<polyline clip-path="url(#clip0003)" style="stroke:#000000; stroke-width:2; stroke-opacity:0.1; fill:none" points="
  148.013,213.714 2321.26,213.714 
  "/>
<polyline clip-path="url(#clip0001)" style="stroke:#000000; stroke-width:4; stroke-opacity:1; fill:none" points="
  148.013,1503.47 2321.26,1503.47 
  "/>
<polyline clip-path="url(#clip0001)" style="stroke:#000000; stroke-width:4; stroke-opacity:1; fill:none" points="
  148.013,1503.47 148.013,47.2441 
  "/>
<polyline clip-path="url(#clip0001)" style="stroke:#000000; stroke-width:4; stroke-opacity:1; fill:none" points="
  207.468,1503.47 207.468,1481.63 
  "/>
<polyline clip-path="url(#clip0001)" style="stroke:#000000; stroke-width:4; stroke-opacity:1; fill:none" points="
  720.539,1503.47 720.539,1481.63 
  "/>
<polyline clip-path="url(#clip0001)" style="stroke:#000000; stroke-width:4; stroke-opacity:1; fill:none" points="
  1233.61,1503.47 1233.61,1481.63 
  "/>
<polyline clip-path="url(#clip0001)" style="stroke:#000000; stroke-width:4; stroke-opacity:1; fill:none" points="
  1746.68,1503.47 1746.68,1481.63 
  "/>
<polyline clip-path="url(#clip0001)" style="stroke:#000000; stroke-width:4; stroke-opacity:1; fill:none" points="
  2259.75,1503.47 2259.75,1481.63 
  "/>
<polyline clip-path="url(#clip0001)" style="stroke:#000000; stroke-width:4; stroke-opacity:1; fill:none" points="
  148.013,1333.61 180.612,1333.61 
  "/>
<polyline clip-path="url(#clip0001)" style="stroke:#000000; stroke-width:4; stroke-opacity:1; fill:none" points="
  148.013,1146.96 180.612,1146.96 
  "/>
<polyline clip-path="url(#clip0001)" style="stroke:#000000; stroke-width:4; stroke-opacity:1; fill:none" points="
  148.013,960.313 180.612,960.313 
  "/>
<polyline clip-path="url(#clip0001)" style="stroke:#000000; stroke-width:4; stroke-opacity:1; fill:none" points="
  148.013,773.663 180.612,773.663 
  "/>
<polyline clip-path="url(#clip0001)" style="stroke:#000000; stroke-width:4; stroke-opacity:1; fill:none" points="
  148.013,587.013 180.612,587.013 
  "/>
<polyline clip-path="url(#clip0001)" style="stroke:#000000; stroke-width:4; stroke-opacity:1; fill:none" points="
  148.013,400.364 180.612,400.364 
  "/>
<polyline clip-path="url(#clip0001)" style="stroke:#000000; stroke-width:4; stroke-opacity:1; fill:none" points="
  148.013,213.714 180.612,213.714 
  "/>
<g clip-path="url(#clip0001)">
<text style="fill:#000000; fill-opacity:1; font-family:Arial,Helvetica Neue,Helvetica,sans-serif; font-size:48; text-anchor:middle;" transform="rotate(0, 207.468, 1557.47)" x="207.468" y="1557.47">0</text>
</g>
<g clip-path="url(#clip0001)">
<text style="fill:#000000; fill-opacity:1; font-family:Arial,Helvetica Neue,Helvetica,sans-serif; font-size:48; text-anchor:middle;" transform="rotate(0, 720.539, 1557.47)" x="720.539" y="1557.47">250</text>
</g>
<g clip-path="url(#clip0001)">
<text style="fill:#000000; fill-opacity:1; font-family:Arial,Helvetica Neue,Helvetica,sans-serif; font-size:48; text-anchor:middle;" transform="rotate(0, 1233.61, 1557.47)" x="1233.61" y="1557.47">500</text>
</g>
<g clip-path="url(#clip0001)">
<text style="fill:#000000; fill-opacity:1; font-family:Arial,Helvetica Neue,Helvetica,sans-serif; font-size:48; text-anchor:middle;" transform="rotate(0, 1746.68, 1557.47)" x="1746.68" y="1557.47">750</text>
</g>
<g clip-path="url(#clip0001)">
<text style="fill:#000000; fill-opacity:1; font-family:Arial,Helvetica Neue,Helvetica,sans-serif; font-size:48; text-anchor:middle;" transform="rotate(0, 2259.75, 1557.47)" x="2259.75" y="1557.47">1000</text>
</g>
<g clip-path="url(#clip0001)">
<text style="fill:#000000; fill-opacity:1; font-family:Arial,Helvetica Neue,Helvetica,sans-serif; font-size:48; text-anchor:end;" transform="rotate(0, 124.013, 1351.11)" x="124.013" y="1351.11">7</text>
</g>
<g clip-path="url(#clip0001)">
<text style="fill:#000000; fill-opacity:1; font-family:Arial,Helvetica Neue,Helvetica,sans-serif; font-size:48; text-anchor:end;" transform="rotate(0, 124.013, 1164.46)" x="124.013" y="1164.46">8</text>
</g>
<g clip-path="url(#clip0001)">
<text style="fill:#000000; fill-opacity:1; font-family:Arial,Helvetica Neue,Helvetica,sans-serif; font-size:48; text-anchor:end;" transform="rotate(0, 124.013, 977.813)" x="124.013" y="977.813">9</text>
</g>
<g clip-path="url(#clip0001)">
<text style="fill:#000000; fill-opacity:1; font-family:Arial,Helvetica Neue,Helvetica,sans-serif; font-size:48; text-anchor:end;" transform="rotate(0, 124.013, 791.163)" x="124.013" y="791.163">10</text>
</g>
<g clip-path="url(#clip0001)">
<text style="fill:#000000; fill-opacity:1; font-family:Arial,Helvetica Neue,Helvetica,sans-serif; font-size:48; text-anchor:end;" transform="rotate(0, 124.013, 604.513)" x="124.013" y="604.513">11</text>
</g>
<g clip-path="url(#clip0001)">
<text style="fill:#000000; fill-opacity:1; font-family:Arial,Helvetica Neue,Helvetica,sans-serif; font-size:48; text-anchor:end;" transform="rotate(0, 124.013, 417.864)" x="124.013" y="417.864">12</text>
</g>
<g clip-path="url(#clip0001)">
<text style="fill:#000000; fill-opacity:1; font-family:Arial,Helvetica Neue,Helvetica,sans-serif; font-size:48; text-anchor:end;" transform="rotate(0, 124.013, 231.214)" x="124.013" y="231.214">13</text>
</g>
<polyline clip-path="url(#clip0003)" style="stroke:#009af9; stroke-width:4; stroke-opacity:1; fill:none" points="
  209.52,359.857 211.572,339.854 213.624,599.098 215.677,661.7 217.729,853.94 219.781,825.177 221.834,599.072 223.886,805.007 225.938,809.104 227.99,926.788 
  230.043,893.013 232.095,924.505 234.147,871.671 236.2,686.669 238.252,707.846 240.304,801.713 242.356,951.934 244.409,1053.07 246.461,968.092 248.513,998.435 
  250.566,1025.17 252.618,763.441 254.67,786.289 256.722,998.368 258.775,921.839 260.827,639.856 262.879,1067.78 264.932,1255.98 266.984,504.811 269.036,389.339 
  271.088,748.522 273.141,705.306 275.193,704.386 277.245,521.832 279.298,1087.11 281.35,910.648 283.402,1097.22 285.454,1005.82 287.507,843.15 289.559,715.672 
  291.611,897.573 293.664,763.466 295.716,734.701 297.768,486.938 299.82,601.812 301.873,1004.05 303.925,947.431 305.977,701.185 308.03,1448.3 310.082,941.433 
  312.134,608.866 314.186,694.011 316.239,550.873 318.291,563.732 320.343,839.009 322.396,1014.85 324.448,778.097 326.5,837.103 328.552,955.569 330.605,900.349 
  332.657,715.532 334.709,895.354 336.762,813.96 338.814,691.596 340.866,685.48 342.918,836.308 344.971,427.823 347.023,934.882 349.075,646.354 351.128,261.821 
  353.18,1169.58 355.232,892.929 357.284,828.779 359.337,1148.86 361.389,610.353 363.441,675.219 365.494,99.501 367.546,545.702 369.598,567.562 371.65,517.738 
  373.703,991.483 375.755,374.335 377.807,648.392 379.86,879.234 381.912,429.744 383.964,675.555 386.016,781.712 388.069,473.236 390.121,770.588 392.173,545.612 
  394.226,326.746 396.278,613.989 398.33,815.069 400.382,538.505 402.435,892.082 404.487,1058.78 406.539,547.519 408.592,828.307 410.644,870.994 412.696,836.53 
  414.748,556.747 416.801,823.596 418.853,429.343 420.905,459.744 422.958,1019.17 425.01,712.543 427.062,757.847 429.114,1006.83 431.167,1075.09 433.219,915.629 
  435.271,779.707 437.324,889.605 439.376,857.476 441.428,901.052 443.48,1037.31 445.533,546.152 447.585,621.63 449.637,720.632 451.69,606.662 453.742,642.139 
  455.794,870.346 457.846,724.548 459.899,409.963 461.951,715.645 464.003,575.424 466.056,534.463 468.108,623.994 470.16,585.219 472.212,846.946 474.265,607.068 
  476.317,1086.72 478.369,613.212 480.422,498.531 482.474,960.134 484.526,625.292 486.578,567.436 488.631,558.25 490.683,553.528 492.735,793.299 494.788,711.523 
  496.84,780.861 498.892,744.513 500.944,942.198 502.997,483.845 505.049,271.609 507.101,600.5 509.154,409.262 511.206,764.629 513.258,612.001 515.31,938.564 
  517.363,761.818 519.415,436.705 521.467,763.453 523.52,809.698 525.572,729.279 527.624,711.467 529.676,798.873 531.729,1039.09 533.781,1179.39 535.833,1241.66 
  537.886,835.693 539.938,1001.45 541.99,1174.52 544.042,561.972 546.095,695.646 548.147,670.883 550.199,472.869 552.252,765.626 554.304,1018.27 556.356,965.363 
  558.408,821.763 560.461,1027.36 562.513,720.457 564.565,1025.2 566.617,751.094 568.67,603.629 570.722,889.009 572.774,762.376 574.827,351.52 576.879,739.277 
  578.931,929.32 580.983,606.465 583.036,835.708 585.088,840.318 587.14,948.477 589.193,636.005 591.245,888.027 593.297,755.263 595.349,447.197 597.402,457.839 
  599.454,246.212 601.506,485.565 603.559,433.373 605.611,753.918 607.663,802.739 609.715,763.67 611.768,613.972 613.82,963.763 615.872,542.867 617.925,727.192 
  619.977,627.976 622.029,575.957 624.081,857.637 626.134,891.593 628.186,997.269 630.238,928.106 632.291,890.769 634.343,805.788 636.395,1072.43 638.447,885.988 
  640.5,839.95 642.552,728.062 644.604,800.541 646.657,957.547 648.709,840.907 650.761,954.306 652.813,686.97 654.866,402.661 656.918,572.375 658.97,812.58 
  661.023,552.057 663.075,667.832 665.127,466.228 667.179,581.094 669.232,659.163 671.284,402.226 673.336,701.315 675.389,387.357 677.441,378.892 679.493,877.943 
  681.545,781.844 683.598,594.23 685.65,668.165 687.702,765.673 689.755,651.912 691.807,873.444 693.859,800.843 695.911,853.593 697.964,703.911 700.016,755 
  702.068,743.014 704.121,708.829 706.173,719.94 708.225,948.813 710.277,578.638 712.33,590.301 714.382,1043.79 716.434,842.564 718.487,922.45 720.539,951.068 
  722.591,1066.66 724.643,1462.26 726.696,1052.53 728.748,1118.04 730.8,1107.07 732.853,1075.17 734.905,952.579 736.957,761.98 739.009,1086.73 741.062,437.829 
  743.114,776.864 745.166,1144.87 747.219,908.501 749.271,1210.16 751.323,1286.38 753.375,937.932 755.428,749.918 757.48,744.493 759.532,612.778 761.585,940.147 
  763.637,970.066 765.689,350.751 767.741,478.532 769.794,378.117 771.846,561.446 773.898,1019.86 775.951,1023.59 778.003,411.699 780.055,931.96 782.107,719.477 
  784.16,607.568 786.212,605.602 788.264,509.248 790.317,510.042 792.369,514.419 794.421,442.774 796.473,703.412 798.526,896.96 800.578,903.011 802.63,1026.61 
  804.683,710.449 806.735,856.936 808.787,1007.51 810.839,869.856 812.892,981.67 814.944,726.942 816.996,985.716 819.049,676.072 821.101,850.76 823.153,998.815 
  825.205,588.046 827.258,718.085 829.31,760.369 831.362,580.653 833.415,931.955 835.467,769.135 837.519,706.04 839.571,707.182 841.624,220.066 843.676,283.74 
  845.728,434.582 847.781,583.441 849.833,866.132 851.885,368.25 853.937,282.796 855.99,726.14 858.042,559.074 860.094,1008.12 862.147,1046.92 864.199,605.212 
  866.251,736.304 868.303,1049.82 870.356,591.877 872.408,1047.86 874.46,994.375 876.513,846.82 878.565,1223.86 880.617,776.459 882.669,403.713 884.722,804.256 
  886.774,398.486 888.826,703.779 890.879,807.075 892.931,851.797 894.983,1083.96 897.035,870.826 899.088,913.602 901.14,819.832 903.192,830.618 905.245,862.052 
  907.297,921.595 909.349,778.024 911.401,1019.99 913.454,972.118 915.506,960.139 917.558,1085.76 919.611,1107.45 921.663,793.866 923.715,832.448 925.767,934.704 
  927.82,733.03 929.872,674.982 931.924,700.522 933.977,615.097 936.029,651.629 938.081,579.689 940.133,588.564 942.186,569.666 944.238,767.903 946.29,778.873 
  948.343,753.245 950.395,786.557 952.447,1143.48 954.499,1113.3 956.552,1107.43 958.604,1066.12 960.656,930.823 962.709,986.364 964.761,833.928 966.813,665.218 
  968.865,645.15 970.918,528.81 972.97,742.807 975.022,646.269 977.075,980.009 979.127,852.244 981.179,711.221 983.231,902.6 985.284,856.109 987.336,890.972 
  989.388,778.755 991.441,871.951 993.493,767.514 995.545,648.26 997.597,632.862 999.65,473.494 1001.7,730.022 1003.75,812.925 1005.81,720.364 1007.86,644.846 
  1009.91,197.206 1011.96,429.512 1014.02,374.327 1016.07,275.186 1018.12,855.779 1020.17,675.229 1022.22,755.409 1024.28,948.361 1026.33,909.879 1028.38,1055.76 
  1030.43,1035.11 1032.49,827.207 1034.54,822.809 1036.59,941.359 1038.64,723.487 1040.7,961.32 1042.75,761.851 1044.8,975.856 1046.85,1211.56 1048.9,1009.73 
  1050.96,855.61 1053.01,677.055 1055.06,211.393 1057.11,278.374 1059.17,460.799 1061.22,639.143 1063.27,826.521 1065.32,615.012 1067.38,965.162 1069.43,555.759 
  1071.48,590.844 1073.53,734.706 1075.58,589.396 1077.64,700.191 1079.69,1044.87 1081.74,828.547 1083.79,437.722 1085.85,672.189 1087.9,262.234 1089.95,398.031 
  1092,781.918 1094.05,552.123 1096.11,877.727 1098.16,845.238 1100.21,1166.52 1102.26,1007.36 1104.32,1227.32 1106.37,976.537 1108.42,727.547 1110.47,676.529 
  1112.53,1032.07 1114.58,1035.64 1116.63,988.421 1118.68,1106.6 1120.73,836.28 1122.79,874.814 1124.84,689.261 1126.89,339.519 1128.94,637.522 1131,365.238 
  1133.05,315.747 1135.1,188.476 1137.15,402.168 1139.21,656.796 1141.26,486.271 1143.31,584.072 1145.36,684.884 1147.41,527.355 1149.47,428.209 1151.52,977.262 
  1153.57,988.149 1155.62,1047.19 1157.68,814.951 1159.73,948.818 1161.78,625.418 1163.83,634.249 1165.88,515.754 1167.94,509.397 1169.99,930.706 1172.04,1135.27 
  1174.09,580.013 1176.15,866.467 1178.2,964.803 1180.25,740.214 1182.3,1086.2 1184.36,1115.83 1186.41,969.845 1188.46,956.101 1190.51,986.094 1192.56,358.214 
  1194.62,490.696 1196.67,661.464 1198.72,88.4582 1200.77,577.147 1202.83,770.967 1204.88,389.119 1206.93,1008.85 1208.98,779.296 1211.04,663.796 1213.09,748.832 
  1215.14,1042.5 1217.19,872.055 1219.24,791.905 1221.3,1270.81 1223.35,624.469 1225.4,516.896 1227.45,1201.08 1229.51,958.087 1231.56,712.676 1233.61,1046.7 
  1235.66,1181.3 1237.71,668.046 1239.77,824.469 1241.82,538.898 1243.87,734.614 1245.92,561.999 1247.98,533.843 1250.03,645.717 1252.08,680.084 1254.13,698.042 
  1256.19,595.096 1258.24,749.242 1260.29,915.214 1262.34,927.575 1264.39,962.88 1266.45,857.892 1268.5,693.77 1270.55,948.941 1272.6,620.363 1274.66,357.428 
  1276.71,797.627 1278.76,938.631 1280.81,649.547 1282.87,957.967 1284.92,1078.91 1286.97,858.04 1289.02,692.362 1291.07,994.59 1293.13,1041.46 1295.18,778.956 
  1297.23,660.263 1299.28,1035.88 1301.34,779.121 1303.39,721.436 1305.44,868.453 1307.49,771.592 1309.54,719.995 1311.6,974.567 1313.65,858.1 1315.7,878.942 
  1317.75,947.552 1319.81,600.214 1321.86,1155.15 1323.91,1044.19 1325.96,787.871 1328.02,1224.35 1330.07,1124.83 1332.12,952.856 1334.17,595.814 1336.22,457.628 
  1338.28,774.54 1340.33,396.169 1342.38,810.36 1344.43,735.238 1346.49,853.801 1348.54,840.762 1350.59,1099.24 1352.64,902.003 1354.7,1210.54 1356.75,863.667 
  1358.8,362.405 1360.85,481.435 1362.9,417.784 1364.96,688.577 1367.01,450.085 1369.06,608.648 1371.11,933.001 1373.17,642.792 1375.22,418.331 1377.27,825.111 
  1379.32,831.587 1381.37,930.525 1383.43,554.387 1385.48,854.114 1387.53,903.942 1389.58,670.349 1391.64,777.55 1393.69,1045.47 1395.74,799.468 1397.79,780.181 
  1399.85,661.129 1401.9,785.679 1403.95,798.072 1406,500.298 1408.05,895.899 1410.11,828.527 1412.16,588.241 1414.21,565.922 1416.26,697.42 1418.32,614.276 
  1420.37,783.821 1422.42,1053.84 1424.47,748.141 1426.53,937.855 1428.58,1077.85 1430.63,990.758 1432.68,1034.43 1434.73,922.615 1436.79,949.833 1438.84,1190.42 
  1440.89,1319.47 1442.94,1250.09 1445,1071.49 1447.05,978.048 1449.1,1033.5 1451.15,948.973 1453.2,677.516 1455.26,936.787 1457.31,861.52 1459.36,872.898 
  1461.41,1036.16 1463.47,1077.08 1465.52,813.479 1467.57,947.353 1469.62,866.413 1471.68,723.64 1473.73,634.246 1475.78,664.376 1477.83,757.268 1479.88,413.883 
  1481.94,519.516 1483.99,459.139 1486.04,435.186 1488.09,476.644 1490.15,982.532 1492.2,652.402 1494.25,570.097 1496.3,784.829 1498.36,752.834 1500.41,600.583 
  1502.46,778.005 1504.51,410.169 1506.56,663.857 1508.62,813.136 1510.67,368.987 1512.72,747.895 1514.77,784.26 1516.83,294.759 1518.88,568.176 1520.93,661.591 
  1522.98,632.781 1525.03,928.769 1527.09,785.088 1529.14,1162.38 1531.19,1053.11 1533.24,973.524 1535.3,1044.21 1537.35,843.936 1539.4,826.045 1541.45,1004.86 
  1543.51,842.456 1545.56,562.571 1547.61,611.284 1549.66,811.32 1551.71,756.618 1553.77,1044.7 1555.82,822.185 1557.87,918.705 1559.92,729.703 1561.98,273.439 
  1564.03,901.98 1566.08,699.359 1568.13,695.286 1570.18,615.732 1572.24,543.342 1574.29,604.457 1576.34,534.891 1578.39,582.787 1580.45,687.857 1582.5,800.473 
  1584.55,702.991 1586.6,700.457 1588.66,650.535 1590.71,801.805 1592.76,718.222 1594.81,672.924 1596.86,999.149 1598.92,548.216 1600.97,859.834 1603.02,804.143 
  1605.07,872.883 1607.13,839.896 1609.18,596.12 1611.23,680.965 1613.28,442.224 1615.34,467.308 1617.39,671.407 1619.44,871.926 1621.49,1092.24 1623.54,887.511 
  1625.6,1022.31 1627.65,912.801 1629.7,663.362 1631.75,883.764 1633.81,780.174 1635.86,730.608 1637.91,664.423 1639.96,994.864 1642.01,1068.68 1644.07,1128.47 
  1646.12,1101.24 1648.17,977.837 1650.22,864.165 1652.28,735.61 1654.33,1329.01 1656.38,879.347 1658.43,587.149 1660.49,898.439 1662.54,766.393 1664.59,924.224 
  1666.64,595.608 1668.69,707.836 1670.75,659.407 1672.8,580.258 1674.85,664.53 1676.9,807.854 1678.96,799.443 1681.01,601.3 1683.06,766.404 1685.11,752.923 
  1687.17,414.021 1689.22,473.639 1691.27,663.651 1693.32,489.746 1695.37,1058.33 1697.43,929.529 1699.48,697.195 1701.53,709.889 1703.58,535.926 1705.64,479.698 
  1707.69,628.135 1709.74,555.752 1711.79,784.198 1713.84,705.751 1715.9,652.243 1717.95,588.684 1720,809.219 1722.05,696.639 1724.11,648.318 1726.16,822.033 
  1728.21,502.819 1730.26,623.708 1732.32,666.338 1734.37,673.96 1736.42,754.146 1738.47,824.099 1740.52,1205.49 1742.58,1070.98 1744.63,895.986 1746.68,754.29 
  1748.73,1110.73 1750.79,703.2 1752.84,502.862 1754.89,1042.81 1756.94,902.686 1759,893.099 1761.05,731.358 1763.1,575.558 1765.15,1090.94 1767.2,1013.52 
  1769.26,835.148 1771.31,975.646 1773.36,811.892 1775.41,869.691 1777.47,834.618 1779.52,956.057 1781.57,1047.35 1783.62,810.293 1785.67,702.382 1787.73,840.068 
  1789.78,461.82 1791.83,619.873 1793.88,610.496 1795.94,443.389 1797.99,1098.41 1800.04,768.72 1802.09,864.621 1804.15,1029.65 1806.2,704.24 1808.25,1050.34 
  1810.3,900.893 1812.35,997.851 1814.41,733.958 1816.46,586.792 1818.51,714.16 1820.56,795.542 1822.62,808.746 1824.67,957.93 1826.72,813.984 1828.77,1082.76 
  1830.83,953.02 1832.88,722.562 1834.93,809.561 1836.98,964.77 1839.03,581.249 1841.09,777.859 1843.14,909.846 1845.19,551.375 1847.24,531.904 1849.3,523.627 
  1851.35,258.451 1853.4,628.483 1855.45,684.031 1857.5,473.297 1859.56,604.063 1861.61,489.484 1863.66,573.375 1865.71,492.499 1867.77,599.18 1869.82,720.2 
  1871.87,636.295 1873.92,640.892 1875.98,680.9 1878.03,507.55 1880.08,579.65 1882.13,627.259 1884.18,677.967 1886.24,778.698 1888.29,645.268 1890.34,779.285 
  1892.39,742.733 1894.45,1004.84 1896.5,868.314 1898.55,757.313 1900.6,1013.61 1902.66,805.822 1904.71,942.65 1906.76,1027.96 1908.81,598.056 1910.86,974.509 
  1912.92,970.867 1914.97,643.16 1917.02,613.06 1919.07,691.425 1921.13,972.907 1923.18,520.297 1925.23,406.429 1927.28,895.928 1929.33,519.316 1931.39,629.372 
  1933.44,938.637 1935.49,539.487 1937.54,1006.59 1939.6,783.835 1941.65,962.012 1943.7,833.628 1945.75,1054.68 1947.81,899.299 1949.86,911.95 1951.91,476.89 
  1953.96,609.686 1956.01,708.164 1958.07,424.296 1960.12,492.264 1962.17,554.721 1964.22,655.991 1966.28,293.18 1968.33,502.522 1970.38,525.247 1972.43,531.12 
  1974.49,458.356 1976.54,390.539 1978.59,689.276 1980.64,601.495 1982.69,892.572 1984.75,744.337 1986.8,533.72 1988.85,771.364 1990.9,520.615 1992.96,1090.03 
  1995.01,958.588 1997.06,775.878 1999.11,1145.04 2001.16,547.657 2003.22,851.606 2005.27,989.01 2007.32,457.184 2009.37,707.358 2011.43,807.153 2013.48,396.651 
  2015.53,786.72 2017.58,1000.75 2019.64,915.7 2021.69,974.622 2023.74,606.938 2025.79,1152.19 2027.84,608.003 2029.9,701.49 2031.95,1025.72 2034,903.532 
  2036.05,648.822 2038.11,483.888 2040.16,623.639 2042.21,687.359 2044.26,871.302 2046.32,944.724 2048.37,954.713 2050.42,744.349 2052.47,701.154 2054.52,969.853 
  2056.58,916.665 2058.63,849.659 2060.68,1016.63 2062.73,750.471 2064.79,843.316 2066.84,781.845 2068.89,888.426 2070.94,568.197 2072.99,409.932 2075.05,894.706 
  2077.1,557.362 2079.15,556.88 2081.2,579.107 2083.26,734.725 2085.31,457.906 2087.36,987.712 2089.41,586.739 2091.47,738.121 2093.52,1135.28 2095.57,766.061 
  2097.62,945.168 2099.67,925.417 2101.73,816.545 2103.78,588.391 2105.83,469.987 2107.88,590.626 2109.94,814.266 2111.99,905.535 2114.04,601.415 2116.09,918.941 
  2118.15,853.201 2120.2,836.334 2122.25,784.516 2124.3,640.086 2126.35,852.526 2128.41,649.455 2130.46,759.611 2132.51,775.714 2134.56,459.805 2136.62,714.193 
  2138.67,450.53 2140.72,627.176 2142.77,414.732 2144.82,529.967 2146.88,922.839 2148.93,638.722 2150.98,556.747 2153.03,1184.57 2155.09,857.162 2157.14,629.399 
  2159.19,997.213 2161.24,434.782 2163.3,645.366 2165.35,958.718 2167.4,755.011 2169.45,1282.96 2171.5,1058.02 2173.56,933.712 2175.61,1142.57 2177.66,1090.3 
  2179.71,872.971 2181.77,699.032 2183.82,946.219 2185.87,794.711 2187.92,819.417 2189.98,786.408 2192.03,787.589 2194.08,852.603 2196.13,668.233 2198.18,569.162 
  2200.24,426.758 2202.29,611.417 2204.34,679.425 2206.39,923.48 2208.45,710.941 2210.5,564.669 2212.55,826.154 2214.6,504.445 2216.65,575.454 2218.71,648.301 
  2220.76,459.262 2222.81,502.864 2224.86,997.498 2226.92,805.018 2228.97,1173.48 2231.02,975.028 2233.07,1099.46 2235.13,821.285 2237.18,814.35 2239.23,856.683 
  2241.28,780.135 2243.33,629.925 2245.39,835.66 2247.44,595.906 2249.49,912.752 2251.54,1258.55 2253.6,885.771 2255.65,1005.33 2257.7,998.625 2259.75,725.348 
  
  "/>
<polygon clip-path="url(#clip0001)" points="
1958.43,251.724 2249.26,251.724 2249.26,130.764 1958.43,130.764 
  " fill="#ffffff" fill-opacity="1"/>
<polyline clip-path="url(#clip0001)" style="stroke:#000000; stroke-width:4; stroke-opacity:1; fill:none" points="
  1958.43,251.724 2249.26,251.724 2249.26,130.764 1958.43,130.764 1958.43,251.724 
  "/>
<polyline clip-path="url(#clip0001)" style="stroke:#009af9; stroke-width:4; stroke-opacity:1; fill:none" points="
  1982.43,191.244 2126.43,191.244 
  "/>
<g clip-path="url(#clip0001)">
<text style="fill:#000000; fill-opacity:1; font-family:Arial,Helvetica Neue,Helvetica,sans-serif; font-size:48; text-anchor:start;" transform="rotate(0, 2150.43, 208.744)" x="2150.43" y="208.744">y1</text>
</g>
</svg>
